<svg width="32" height="32" viewBox="0 0 32 32" fill="none" xmlns="http://www.w3.org/2000/svg">
<g clip-path="url(#clip0_783_644)">
<rect width="32" height="32" fill="#F4F7FF"/>
<rect width="32" height="32" rx="11" fill="#174AFF"/>
<path d="M15.3297 3.50779C14.177 3.70584 13.0953 4.51834 12.5926 5.57459C12.293 6.20428 12.232 6.55467 12.2066 7.93592L12.1762 9.19529H11.775C11.3332 9.19529 11.0793 9.27654 10.8559 9.48983L10.7137 9.62186L10.2973 9.47459C10.0688 9.39334 9.66758 9.24608 9.40352 9.14959L8.93125 8.96678L8.29648 7.83943L7.6668 6.71717L7.74805 6.55467C7.85977 6.34139 7.85469 5.94022 7.73789 5.70662C7.68711 5.60506 7.56016 5.45272 7.45352 5.36639C7.29609 5.23943 7.20469 5.20897 6.93555 5.19373C6.49375 5.16326 6.21445 5.32068 6.02656 5.70154C5.87422 6.00115 5.85898 6.22459 5.9707 6.49373C6.11797 6.83397 6.37695 7.03709 6.76797 7.10311L6.97109 7.13865L7.65664 8.3574C8.03242 9.02772 8.37773 9.59647 8.42344 9.62693C8.46914 9.65233 8.94648 9.84022 9.47461 10.0383L10.4395 10.3988L10.4547 10.7847L10.4699 11.1758H9.24102H8.00703L7.49922 10.6781L6.98633 10.1855L7.00156 9.93162C7.02188 9.60662 6.90508 9.29686 6.67656 9.09881C6.51914 8.95662 6.22969 8.83983 6.04688 8.83983C5.70156 8.83983 5.23438 9.16483 5.12773 9.48475C5.03633 9.76912 5.09219 10.1703 5.25469 10.3836C5.33086 10.4851 5.44766 10.607 5.51367 10.6476C5.70156 10.7695 6.03164 10.8305 6.22461 10.7746C6.38711 10.7289 6.40234 10.739 6.94063 11.2875C7.24531 11.5922 7.55508 11.8765 7.63125 11.9172C7.73789 11.973 8.04766 11.9883 9.11914 11.9883H10.4648V12.7246V13.4609H8.70273H6.93555L6.83906 13.3187C6.53945 12.8668 5.84883 12.7703 5.41211 13.1156C5.09219 13.3644 4.98555 13.9332 5.18359 14.3242C5.38164 14.7152 5.93008 14.9285 6.37188 14.7812C6.47344 14.7508 6.64102 14.6238 6.75273 14.4969L6.95078 14.2734H8.70781H10.4648V15.0097V15.7461H9.11406C8.23047 15.7461 7.72773 15.7664 7.65664 15.8019C7.5957 15.8324 7.29102 16.1117 6.97617 16.4215L6.4125 16.9801L6.19922 16.9445C5.91484 16.8988 5.62539 16.9851 5.40195 17.1832C5.17852 17.3812 5.08203 17.5996 5.08203 17.9043C5.08203 18.209 5.17852 18.4273 5.40195 18.6254C6.06719 19.2094 7.0625 18.7015 7.00156 17.8078L6.98633 17.5387L7.49922 17.0512L8.01719 16.5586H9.24102H10.4648V16.9902V17.4168L9.41367 17.7621L8.36758 18.1074L7.6668 19.3515L6.96602 20.5957L6.76797 20.6312C6.25508 20.7176 5.89453 21.1238 5.89453 21.6012C5.89453 21.8449 6.11797 22.2512 6.33125 22.3933C6.59023 22.5711 7.02188 22.5965 7.30625 22.4543C7.52461 22.3426 7.73789 22.1039 7.79883 21.8957C7.85977 21.6926 7.83438 21.3472 7.74805 21.1746L7.6668 21.0172L8.09336 20.2504C8.33203 19.8238 8.61641 19.316 8.72813 19.123L8.93125 18.7676L9.84531 18.473L10.7594 18.1785L10.998 18.3461L11.2367 18.5137L12.7246 18.5289L14.2176 18.5441L14.2328 16.6246C14.248 14.7609 14.2531 14.7 14.3598 14.4613C14.4258 14.3242 14.5375 14.1312 14.6188 14.0297L14.766 13.8418L14.6746 13.6387C14.5477 13.3644 14.5477 12.7957 14.6746 12.5215C14.8016 12.2371 15.0098 12.0086 15.284 11.8461C15.4871 11.7242 15.5684 11.709 15.9492 11.709C16.4367 11.709 16.6652 11.7902 16.9445 12.0746C17.2391 12.364 17.3406 12.623 17.3457 13.0547C17.3457 13.3238 17.3152 13.5015 17.2492 13.6488L17.1578 13.857L17.3152 14.0551C17.6605 14.4867 17.6758 14.5883 17.6758 16.4976V18.214L18.0059 18.2699C18.1887 18.3004 18.4324 18.3765 18.5543 18.4324C18.7523 18.5289 18.8641 18.539 19.6613 18.539C20.6008 18.539 20.6668 18.5238 21.1086 18.2394C21.2051 18.1734 21.3168 18.2039 22.1445 18.468L23.0688 18.7676L23.2719 19.123C23.3836 19.316 23.668 19.8238 23.9066 20.2504L24.3332 21.0172L24.252 21.1746C24.1656 21.3472 24.1402 21.6926 24.2012 21.8957C24.2621 22.1039 24.4754 22.3426 24.6938 22.4543C24.9781 22.5965 25.4098 22.5711 25.6688 22.3933C25.882 22.2512 26.1055 21.8449 26.1055 21.6012C26.1055 21.1238 25.7449 20.7176 25.232 20.6312L25.034 20.5957L24.3332 19.3515L23.6375 18.1074L22.5457 17.7519L21.459 17.3914V16.9902V16.584L22.7184 16.5687L23.9828 16.5586L24.4957 17.0461L25.0137 17.5387L24.9984 17.8078C24.9375 18.6965 25.9328 19.2094 26.598 18.6254C26.8215 18.4273 26.918 18.209 26.918 17.9043C26.918 17.5996 26.8215 17.3812 26.598 17.1832C26.3746 16.9851 26.0852 16.8988 25.8008 16.9445L25.5875 16.9801L25.0238 16.4215C24.709 16.1117 24.4043 15.8324 24.3434 15.8019C24.2723 15.7664 23.7594 15.7461 22.8352 15.7461H21.4336V15.0097V14.2734H23.2414H25.0492L25.2473 14.4969C25.4809 14.7609 25.7145 14.8523 26.0598 14.8219C27.0805 14.7203 27.248 13.273 26.273 12.948C25.877 12.8211 25.3844 12.9785 25.1609 13.3187L25.0645 13.4609H23.2516H21.4336V12.7246V11.9883H22.8301C23.9473 11.9883 24.257 11.973 24.3688 11.9172C24.4449 11.8765 24.7547 11.5922 25.0594 11.2875C25.5977 10.739 25.6129 10.7289 25.7754 10.7746C26.2883 10.9168 26.8621 10.4902 26.9078 9.93162C26.918 9.78436 26.9027 9.58123 26.8723 9.48475C26.7961 9.25623 26.4762 8.96678 26.2223 8.89568C25.9836 8.82967 25.9227 8.82967 25.6891 8.89061C25.2574 9.01248 24.9629 9.4492 24.9984 9.92147L25.0137 10.1855L24.5008 10.6832L23.9879 11.1758L22.7234 11.1656L21.459 11.1504V10.7949V10.4394L22.4746 10.0586C23.0332 9.85037 23.5309 9.65233 23.5766 9.62693C23.6223 9.59647 23.9676 9.02772 24.3434 8.3574L25.0289 7.13865L25.232 7.10311C25.623 7.03709 25.882 6.83397 26.0293 6.49373C26.141 6.22459 26.1258 6.00115 25.9734 5.70154C25.7855 5.32068 25.5063 5.16326 25.0645 5.19373C24.7953 5.20897 24.7039 5.23943 24.5465 5.36639C24.4398 5.45272 24.3129 5.60506 24.2621 5.70662C24.1453 5.94022 24.1402 6.34139 24.252 6.55467L24.3332 6.71717L23.7035 7.83943L23.0688 8.96678L22.1648 9.30193L21.2559 9.64217L21.1035 9.51014C20.8293 9.27654 20.5805 9.19529 20.1285 9.19529H19.7172L19.6969 7.83436L19.6816 6.4785L19.5191 6.03162C19.3109 5.44764 19.0977 5.09217 18.6762 4.64529C18.1125 4.04608 17.498 3.70076 16.7008 3.53826C16.2895 3.45193 15.7309 3.44178 15.3297 3.50779ZM16.3098 5.28514C16.9293 5.40193 17.4523 5.80818 17.7418 6.40233L17.9043 6.72733L17.9195 7.96131L17.9398 9.19529H15.9746H14.0145L14.0297 7.93592C14.0449 6.69686 14.0449 6.67654 14.182 6.39217C14.4258 5.86912 14.9438 5.44764 15.5176 5.30545C15.8426 5.2242 15.9746 5.2242 16.3098 5.28514Z" fill="#71DDFF"/>
<path d="M15.6442 14.248C15.4258 14.3496 15.2532 14.502 15.1465 14.7051C15.0703 14.8422 15.0551 15.2383 15.0348 18.4984L15.0094 22.1395L14.1766 21.073C13.7145 20.484 13.2524 19.9254 13.1457 19.834C12.7649 19.509 12.2875 19.4785 11.9625 19.7629C11.7442 19.9559 11.6629 20.1996 11.6985 20.5602C11.7391 20.941 12.5668 22.6016 13.4606 24.0996C14.2782 25.4656 14.527 25.9531 14.7047 26.527L14.8418 26.9688L18.2289 26.9586L21.611 26.9434L21.7786 26.5168C22.1594 25.5621 22.3321 24.5109 22.3828 22.7996C22.4235 21.3523 22.3524 21.0578 21.8903 20.8242C21.4129 20.5805 20.7832 20.8039 20.6055 21.2812C20.5903 21.3219 20.575 21.2609 20.575 21.1492C20.5649 20.8039 20.4786 20.418 20.3618 20.2605C20.1282 19.9355 19.5645 19.8086 19.1989 20.0016C19.1024 20.0523 18.945 20.2047 18.8586 20.3367L18.6911 20.5805V20.159C18.6911 19.6461 18.5743 19.3922 18.2594 19.2094C18.0918 19.118 18.0004 19.0977 17.7465 19.1078C17.3809 19.1281 17.1168 19.2957 16.9746 19.5902C16.8934 19.7629 16.8883 19.6613 16.8629 17.2594L16.8375 14.7457L16.6953 14.5629C16.4414 14.2328 15.9895 14.0957 15.6442 14.248Z" fill="white"/>
<path d="M14.9184 27.8168C14.898 27.832 14.8828 28.0047 14.8828 28.1977V28.543H18.1074H21.3371L21.3219 28.1723L21.3066 27.8066L18.1277 27.7914C16.3809 27.7863 14.9336 27.7965 14.9184 27.8168Z" fill="white"/>
</g>
<defs>
<clipPath id="clip0_783_644">
<rect width="32" height="32" fill="white"/>
</clipPath>
</defs>
</svg>