<svg width="32" height="32" viewBox="0 0 32 32" fill="none" xmlns="http://www.w3.org/2000/svg">
<g clip-path="url(#clip0_715_1162)">
<rect width="32" height="32" fill="#F4F7FF"/>
<rect width="32" height="32" rx="11" fill="#808DBC"/>
<g clip-path="url(#clip1_715_1162)">
<path d="M8.20698 6.03515C7.86323 6.12109 7.5312 6.40234 7.37104 6.73828L7.26948 6.95703L7.25776 9.71875L7.24604 12.4805L7.11323 12.5234C6.7187 12.6523 6.30073 13.1133 6.11323 13.6289C6.02338 13.8633 6.02338 13.9141 6.00776 15.5273C5.99213 17.5977 5.95698 17.3984 6.68745 19.4766L6.91401 20.1211L6.92963 20.8242L6.94526 21.5273L6.80854 21.7344C6.73042 21.8477 6.6562 22.0117 6.64448 22.1055C6.63276 22.1953 6.62495 22.9648 6.63276 23.8125C6.64448 25.3086 6.64838 25.3594 6.73042 25.5117C6.82807 25.6953 6.98432 25.8477 7.1601 25.9375C7.26948 25.9922 7.55854 26 9.74995 26C12.1015 26 12.2226 25.9961 12.3593 25.9258C12.4374 25.8828 12.5585 25.793 12.6289 25.7187C12.8749 25.4648 12.8749 25.4648 12.8749 23.6875C12.8749 22.0742 12.8749 22.0742 12.7812 21.875C12.7304 21.7656 12.6171 21.6211 12.5234 21.5391L12.3554 21.3984L12.5937 20.6836C12.832 19.9687 12.9531 19.4961 12.9531 19.2773V19.1641H15.8828H18.8124L19.539 20.6133L20.2617 22.0625L20.1054 22.1953C20.0234 22.2695 19.914 22.4023 19.871 22.4961C19.7929 22.6562 19.789 22.7266 19.789 23.9922C19.789 25.4648 19.7968 25.4961 20.0624 25.7539C20.3281 26.0156 20.1914 26.0039 22.9453 25.9922L25.4374 25.9805L25.6015 25.8711C25.6914 25.8125 25.8124 25.6914 25.871 25.6016L25.9804 25.4375L25.9921 24.043C26.0039 22.7148 25.9999 22.6367 25.9257 22.4922C25.8515 22.3437 25.5937 22.082 25.4882 22.0469C25.4492 22.0352 25.4921 21.8984 25.6562 21.5039C26.0351 20.6055 25.9999 21.3906 25.9999 13.7109C25.9999 7.09375 25.996 6.91406 25.9218 6.7539C25.8124 6.51172 25.5234 6.21875 25.2851 6.11328L25.082 6.01953L16.7031 6.01172C12.0937 6.01172 8.27338 6.01953 8.20698 6.03515ZM25.1367 6.73828C25.207 6.78906 25.3007 6.90234 25.3398 6.99219C25.4101 7.14453 25.414 7.35156 25.414 11.7656V16.3828L25.2578 16.3477C25.164 16.3281 25.039 16.3281 24.9453 16.3477L24.789 16.3828V12.2539C24.789 7.71484 24.7968 7.88672 24.5507 7.58984C24.4843 7.50781 24.3554 7.40234 24.2695 7.35547L24.1054 7.26953H16.6445H9.18354L9.02729 7.35547C8.8437 7.45312 8.69526 7.60547 8.5937 7.79687C8.52338 7.92578 8.51948 8.08984 8.50776 10.7734C8.50385 12.3398 8.49213 13.6172 8.48042 13.6172C8.4726 13.6172 8.41792 13.5977 8.35932 13.5781C8.30463 13.5547 8.17182 13.5352 8.06635 13.5312L7.87495 13.5273V10.332C7.87495 8.16406 7.88667 7.10156 7.91792 7.02734C7.9726 6.88281 8.10151 6.74219 8.24604 6.67969C8.3437 6.63672 9.80854 6.6289 16.6835 6.63672L25.0039 6.64453L25.1367 6.73828ZM23.9804 7.91797C24.0351 7.9414 24.0976 8.0039 24.121 8.05859C24.1523 8.125 24.164 9.29297 24.164 12.1094V16.0703L23.9999 16.0352C23.8359 15.9961 23.6835 16.0117 23.4921 16.0859C23.3945 16.1211 23.371 16.1133 23.2734 16.0117C23.0624 15.7812 22.707 15.6602 22.4374 15.7227L22.289 15.7578V15.0977V14.4375H22.8164C23.2929 14.4375 23.3515 14.4297 23.4218 14.3594C23.539 14.2422 23.539 14.0352 23.4179 13.9102C23.3515 13.8398 23.2812 13.832 22.8164 13.8203L22.289 13.8047L22.2656 13.7031C22.1249 13.043 21.4843 12.7031 20.9296 12.9883C20.6523 13.1328 20.414 13.4648 20.414 13.7109V13.8086L18.9296 13.8203C17.5078 13.832 17.4453 13.8359 17.371 13.9102C17.2617 14.0234 17.2499 14.2109 17.3437 14.3437C17.3984 14.4141 17.4726 14.418 18.8984 14.4375L20.3945 14.457L20.4062 15.8711C20.4101 16.6523 20.4023 17.2891 20.3867 17.2891C20.3671 17.2891 20.2695 17.1367 20.164 16.9531C19.8359 16.3711 19.5585 16.1758 19.0664 16.1797C18.5234 16.1836 18.1015 16.543 18.0117 17.082L17.9843 17.25H13.9492H9.91401L9.69526 17.0156C9.57417 16.8828 9.4687 16.7383 9.45698 16.6914C9.44917 16.6445 9.43354 16.2109 9.42573 15.7266C9.4101 14.8086 9.39057 14.6797 9.18745 14.2891C9.13276 14.1797 9.12495 13.8477 9.12495 11.1562C9.12495 7.94531 9.12495 7.94922 9.30854 7.90234C9.3476 7.89062 12.6445 7.88281 16.6328 7.8789C21.8749 7.875 23.914 7.88672 23.9804 7.91797ZM7.3437 16.8555C7.45698 16.9805 7.68745 16.9687 7.79292 16.8359C7.87104 16.7344 7.87495 16.6875 7.87495 15.5078C7.87495 14.8359 7.88667 14.2617 7.89838 14.2266C7.93354 14.1367 8.16792 14.1484 8.32417 14.2422C8.46479 14.3281 8.61713 14.5312 8.7226 14.7695C8.77729 14.8984 8.79292 15.0898 8.81245 15.9023C8.83588 17.0508 8.81245 16.9805 9.39057 17.6172C9.87104 18.1406 10.0624 18.5469 10.0624 19.0312C10.0624 19.2969 10.1679 19.4375 10.3671 19.4375C10.5117 19.4375 10.6874 19.3164 10.6874 19.2148C10.6874 19.1758 10.8515 19.1641 11.5078 19.1641C12.2929 19.1641 12.3281 19.168 12.3281 19.2383C12.3281 19.3945 12.2109 19.8633 12.0429 20.375C11.9453 20.6641 11.8476 21.0039 11.8203 21.125L11.7773 21.3516H9.67182H7.57026L7.55463 20.6953L7.53901 20.043L7.14448 18.8711C6.92573 18.2266 6.7187 17.5664 6.68354 17.4062C6.62885 17.1523 6.62104 16.8789 6.63276 15.5312L6.64448 13.9492L6.75776 13.707C6.82417 13.5547 6.94135 13.3945 7.05073 13.2969L7.23042 13.1289L7.24995 14.9492C7.26948 16.6719 7.27338 16.7773 7.3437 16.8555ZM21.5664 13.6211C21.6406 13.6953 21.6445 13.7617 21.664 15.8867C21.6835 17.9961 21.6874 18.0781 21.7578 18.1328C21.8671 18.2109 22.0703 18.1992 22.1757 18.1133C22.2656 18.0391 22.2695 18.0234 22.2812 17.3203C22.2851 16.9297 22.3007 16.5664 22.3085 16.5156C22.3203 16.4648 22.3867 16.4023 22.4609 16.3672C22.5742 16.3125 22.6054 16.3086 22.7031 16.3555C22.8906 16.4492 22.914 16.5391 22.914 17.3164C22.914 17.9805 22.9179 18.0352 22.9921 18.1094C23.0937 18.2109 23.3046 18.2109 23.4257 18.1133C23.5156 18.043 23.5195 18.0117 23.539 17.4062C23.5546 16.8398 23.5664 16.7695 23.6328 16.7187C23.7656 16.625 23.9531 16.6367 24.0664 16.7461C24.1367 16.8164 24.1445 16.8828 24.1562 17.418C24.1679 17.957 24.1757 18.0195 24.2499 18.0977C24.3554 18.2109 24.5507 18.2148 24.6757 18.1133C24.7617 18.043 24.7695 18.0039 24.7812 17.6328C24.7968 17.0977 24.8046 17.0586 24.9648 16.9922C25.1249 16.9258 25.2617 16.9648 25.3554 17.1094C25.4101 17.1953 25.4179 17.3867 25.4062 18.8203L25.3945 20.4336L25.2734 20.7656C25.2031 20.9492 25.0664 21.2891 24.9687 21.5273L24.789 21.957H22.8476H20.9023L19.7617 19.6719C18.9101 17.957 18.6249 17.3516 18.621 17.2383C18.6171 17.0352 18.8085 16.8242 19.0273 16.7969C19.3046 16.7578 19.3906 16.8555 19.9648 17.8477C20.246 18.3398 20.5039 18.7578 20.5351 18.7773C20.6093 18.8242 20.7929 18.8203 20.8828 18.7734C21.0312 18.6953 21.039 18.5625 21.039 16.1094C21.039 14.5 21.0507 13.7031 21.082 13.6523C21.1679 13.4883 21.414 13.4727 21.5664 13.6211ZM18.3124 18.168C18.3945 18.3164 18.4609 18.4648 18.4609 18.4922C18.4609 18.5312 17.6679 18.5391 14.5507 18.5312L10.6406 18.5195L10.5429 18.2656C10.4921 18.125 10.4374 17.9805 10.4257 17.9414C10.4062 17.8789 10.6015 17.875 14.2851 17.8828L18.1679 17.8945L18.3124 18.168ZM12.1601 22.0625L12.2499 22.1445V23.6797C12.2499 25.1289 12.246 25.2148 12.1757 25.3008L12.1015 25.3945L9.82417 25.4062C8.24213 25.4141 7.51167 25.4023 7.44135 25.375C7.38276 25.3516 7.32026 25.2852 7.29292 25.2344C7.26557 25.168 7.24995 24.6758 7.24995 23.6602C7.24995 22.2227 7.25385 22.1797 7.33198 22.0781L7.4101 21.9766H9.74213H12.0703L12.1601 22.0625ZM25.3007 22.6758L25.3945 22.75L25.4062 23.9648L25.4179 25.1836L25.3007 25.3008L25.1835 25.4141L22.8828 25.4062C20.6796 25.3945 20.5742 25.3906 20.496 25.3203C20.414 25.2461 20.414 25.2148 20.414 24C20.414 22.8086 20.4179 22.7539 20.4921 22.6797C20.5703 22.6016 20.621 22.6016 22.8906 22.6016C25.1171 22.6016 25.2148 22.6055 25.3007 22.6758Z" fill="white"/>
<path d="M21.0313 8.55859C20.9492 8.58594 20.8242 8.65625 20.7539 8.71094C20.5938 8.83594 20.4141 9.15234 20.4141 9.31641V9.4375H18.9531C17.4922 9.4375 17.4883 9.4375 17.3867 9.52344C17.25 9.64062 17.2422 9.83203 17.3672 9.96484L17.4571 10.0625H18.918C20.0508 10.0625 20.3828 10.0742 20.3946 10.1094C20.4024 10.1367 20.418 10.2266 20.4336 10.3047C20.4883 10.6484 20.9336 11 21.3047 11C21.8086 11 22.1524 10.6992 22.2656 10.168L22.2891 10.0625H22.8086C23.1524 10.0586 23.3438 10.043 23.3867 10.0117C23.5625 9.87891 23.5664 9.65234 23.3946 9.51562C23.3047 9.44531 23.2344 9.4375 22.793 9.4375C22.2461 9.4375 22.2891 9.45703 22.2305 9.17578C22.1953 8.99219 22.0039 8.75391 21.8008 8.63672C21.586 8.50781 21.2461 8.47266 21.0313 8.55859ZM21.5352 9.21875C21.6328 9.30469 21.6446 9.33984 21.6563 9.62891C21.6758 10.0156 21.6446 10.1992 21.543 10.3008C21.4414 10.4023 21.2422 10.3984 21.1289 10.2891C21.043 10.2109 21.0391 10.1758 21.0391 9.74609C21.0391 9.29687 21.043 9.28516 21.1406 9.20703C21.2774 9.09766 21.4024 9.10547 21.5352 9.21875Z" fill="white"/>
<path d="M12.6133 9.49219C11.4414 9.71875 10.4727 10.4922 10.0273 11.5664C9.80078 12.1094 9.77344 12.293 9.76953 13.3359V14.2891L9.86328 14.3633C9.94922 14.4336 10.0625 14.4375 13.2109 14.4375C16.418 14.4375 16.4688 14.4375 16.5469 14.3594C16.6211 14.2852 16.625 14.2305 16.625 13.3828C16.625 12.3594 16.5859 12.0703 16.3711 11.5742C16.1875 11.1406 16.0195 10.8789 15.7188 10.5547C15.2734 10.0703 14.6992 9.72266 14.0625 9.55469C13.6641 9.44922 12.9922 9.42188 12.6133 9.49219ZM12.875 10.2578C12.875 10.6328 13.1406 10.8086 13.3984 10.6055C13.4844 10.5352 13.5 10.4961 13.5 10.3125C13.5 10.1172 13.5078 10.1016 13.5898 10.1016C13.8594 10.1016 14.6211 10.4062 14.8633 10.6094L14.957 10.6914L14.8164 10.8359C14.6328 11.0234 14.6172 11.2227 14.7734 11.3477C14.9219 11.4648 15.0391 11.4492 15.2148 11.293C15.2969 11.2188 15.3789 11.1562 15.3984 11.1562C15.418 11.1562 15.5078 11.2734 15.5977 11.418C15.7578 11.6797 15.9258 12.125 15.9766 12.4141L16.0039 12.5625H15.8359C15.5117 12.5625 15.3203 12.7617 15.4141 12.9961C15.4766 13.1484 15.5586 13.1875 15.8008 13.1875H16V13.5V13.8125H15.2227H14.4492L14.4297 13.6445C14.4102 13.4844 14.2969 13.2031 14.1953 13.0625C14.1523 13 14.1836 12.957 14.4492 12.6875C14.6953 12.4414 14.75 12.3633 14.75 12.2617C14.75 12.082 14.6328 11.9609 14.4609 11.9609C14.332 11.9609 14.2812 11.9961 13.9766 12.3008L13.6328 12.6406L13.418 12.5977C13.0234 12.5195 12.5703 12.6719 12.2852 12.9844C12.1094 13.1719 12.0352 13.3242 11.9727 13.6172L11.9297 13.8125H11.1523H10.375V13.5V13.1875H10.6055C10.8086 13.1875 10.8477 13.1758 10.918 13.0859C11.1211 12.8281 10.9453 12.5625 10.5664 12.5625H10.4062L10.4336 12.3867C10.4805 12.0547 10.7266 11.4648 10.9141 11.2344L10.9922 11.1406L11.1523 11.2852C11.3477 11.4609 11.5039 11.4766 11.6445 11.332C11.7891 11.1914 11.7734 11.0352 11.5977 10.8398L11.4531 10.6797L11.5469 10.6016C11.7852 10.4102 12.5273 10.1055 12.7695 10.1016C12.8672 10.1016 12.875 10.1133 12.875 10.2578ZM13.4609 13.2734C13.6523 13.3711 13.8125 13.5742 13.8125 13.7188V13.8125H13.1875H12.5625L12.5859 13.7031C12.6445 13.4648 12.8008 13.293 13.0312 13.2227C13.1953 13.1719 13.2812 13.1836 13.4609 13.2734Z" fill="white"/>
<path d="M18.5507 10.7422C18.4648 10.7734 18.3359 10.832 18.2695 10.8828C18.1093 10.9922 17.914 11.3359 17.914 11.4961V11.625H17.703C17.3984 11.625 17.2655 11.75 17.2851 12.0273C17.2929 12.1445 17.4374 12.2304 17.6679 12.25L17.8945 12.2695L17.9218 12.4453C17.9882 12.8242 18.3437 13.1523 18.7265 13.1797C19.0624 13.2031 19.2577 13.1328 19.4765 12.9179C19.6484 12.7461 19.707 12.6367 19.7655 12.3554L19.789 12.25H21.5429C22.5077 12.25 23.328 12.2383 23.3632 12.2265C23.453 12.1914 23.5429 11.9922 23.5155 11.8828C23.5038 11.8281 23.457 11.7539 23.414 11.7148C23.3398 11.6484 23.207 11.6445 21.5546 11.625L19.7695 11.6054L19.746 11.4648C19.6952 11.1328 19.4023 10.8203 19.0663 10.7304C18.8671 10.6758 18.7577 10.6797 18.5507 10.7422ZM19.0312 11.4023C19.1249 11.4843 19.1405 11.5273 19.1562 11.8125C19.1874 12.3633 19.1015 12.5625 18.832 12.5625C18.578 12.5625 18.539 12.4765 18.539 11.9414C18.539 11.4843 18.5429 11.4726 18.6405 11.3945C18.7773 11.289 18.8984 11.2929 19.0312 11.4023Z" fill="white"/>
</g>
</g>
<defs>
<clipPath id="clip0_715_1162">
<rect width="32" height="32" fill="white"/>
</clipPath>
<clipPath id="clip1_715_1162">
<rect width="20" height="20" fill="white" transform="translate(6 6)"/>
</clipPath>
</defs>
</svg>
