<svg width="32" height="32" viewBox="0 0 32 32" fill="none" xmlns="http://www.w3.org/2000/svg">
<rect width="32" height="32" fill="#F4F7FF"/>
<path d="M13 1.44338C14.547 0.550211 16.453 0.550212 18 1.44338L26.4234 6.30662C27.9704 7.19979 28.9234 8.85042 28.9234 10.6368V20.3632C28.9234 22.1496 27.9704 23.8002 26.4234 24.6934L18 29.5566C16.453 30.4498 14.547 30.4498 13 29.5566L4.57661 24.6934C3.0296 23.8002 2.07661 22.1496 2.07661 20.3632V10.6368C2.07661 8.85042 3.0296 7.19979 4.57661 6.30662L13 1.44338Z" fill="#174AFF"/>
<path d="M14.0279 6.80005H16.9659L16.4719 19.254H14.4959L14.0279 6.80005ZM15.5099 25.156C15.0246 25.156 14.6173 25 14.2879 24.688C13.9586 24.3587 13.7939 23.9601 13.7939 23.4921C13.7939 23.024 13.9586 22.6341 14.2879 22.3221C14.6173 21.9927 15.0246 21.828 15.5099 21.828C15.9953 21.828 16.3939 21.9927 16.7059 22.3221C17.0179 22.6341 17.1739 23.024 17.1739 23.4921C17.1739 23.9601 17.0093 24.3587 16.6799 24.688C16.3679 25 15.9779 25.156 15.5099 25.156Z" fill="white"/>
<path d="M14.0283 6.80005H16.9663L16.4723 19.254H14.4963L14.0283 6.80005Z" fill="#71DDFF"/>
</svg>
