<svg width="32" height="32" viewBox="0 0 32 32" fill="none" xmlns="http://www.w3.org/2000/svg">
<g clip-path="url(#clip0_578_271)">
<rect width="32" height="32" fill="#F4F7FF"/>
<rect y="1.52588e-05" width="32" height="32" rx="11" fill="#4D17E2"/>
<path d="M23.6786 26.9933C22.92 27.0368 22.1644 26.8682 21.4964 26.5062C20.8284 26.1442 20.2746 25.6033 19.8971 24.9441C19.5196 24.285 19.3333 23.5336 19.3592 22.7745C19.3852 22.0154 19.6223 21.2785 20.0439 20.6466L22.885 16.4192C22.9725 16.2891 23.0906 16.1825 23.229 16.1089C23.3674 16.0352 23.5218 15.9966 23.6786 15.9966C23.8354 15.9966 23.9898 16.0352 24.1281 16.1089C24.2665 16.1825 24.3847 16.2891 24.4721 16.4192L27.2614 20.5642C27.7228 21.2466 27.9791 22.0469 28 22.8703C27.972 23.9893 27.5014 25.0516 26.6914 25.8244C25.8814 26.5972 24.798 27.0175 23.6786 26.9933V26.9933ZM23.6786 18.0546L21.3717 21.4847C21.1002 21.8792 20.9468 22.3428 20.9293 22.8213C20.9119 23.2998 21.0312 23.7734 21.2732 24.1865C21.5153 24.5997 21.8701 24.9354 22.2961 25.1542C22.7221 25.3731 23.2016 25.4661 23.6786 25.4223C24.3813 25.4468 25.0651 25.192 25.5805 24.7138C26.0958 24.2355 26.4007 23.5727 26.4286 22.8703C26.4104 22.3437 26.2383 21.8339 25.9336 21.4038L23.6786 18.0546ZM13.0714 15.9966V12.0693H13.8571C14.6904 12.0682 15.4892 11.7369 16.0783 11.1479C16.6675 10.5589 16.999 9.76033 17 8.92737V6.57095H14.6429C13.8383 6.57227 13.0652 6.88371 12.4845 7.44047C12.0776 6.70194 11.4801 6.08598 10.7542 5.65676C10.0283 5.22753 9.20053 5.00074 8.35714 5H6V7.35642C6.00146 8.6059 6.49861 9.80378 7.38239 10.6873C8.26617 11.5708 9.46443 12.0678 10.7143 12.0693H11.5V15.9966H6V17.5676H17V15.9966H13.0714ZM14.6429 8.1419H15.4286V8.92737C15.4282 9.34388 15.2625 9.74322 14.9679 10.0377C14.6732 10.3323 14.2738 10.4979 13.8571 10.4983H13.0714V9.71284C13.0718 9.29633 13.2375 8.897 13.5321 8.60248C13.8268 8.30796 14.2262 8.14231 14.6429 8.1419V8.1419ZM10.7143 10.4983C9.88107 10.4973 9.08227 10.1659 8.4931 9.57693C7.90392 8.98794 7.57247 8.18939 7.57143 7.35642V6.57095H8.35714C9.19036 6.57199 9.98916 6.90334 10.5783 7.49234C11.1675 8.08133 11.499 8.87988 11.5 9.71284V10.4983H10.7143ZM6 19.924H17V21.495H6V19.924ZM6 23.8514H17V25.4223H6V23.8514Z" fill="white"/>
</g>
<defs>
<clipPath id="clip0_578_271">
<rect width="32" height="32" fill="white"/>
</clipPath>
</defs>
</svg>
