<svg width="32" height="32" viewBox="0 0 32 32" fill="none" xmlns="http://www.w3.org/2000/svg">
<g clip-path="url(#clip0_783_1001)">
<rect width="32" height="32" rx="11" fill="#174AFF"/>
<path d="M8.64281 12.357C10.3898 10.857 11.7698 9.67099 15.5148 11.787C17.3138 12.803 18.7648 13.187 19.9718 13.185C22.0868 13.185 23.4578 12.009 24.6428 10.992C24.8462 10.815 24.9727 10.5658 24.9955 10.2972C25.0182 10.0286 24.9355 9.76165 24.7648 9.55299C24.6815 9.4506 24.5786 9.36595 24.462 9.30404C24.3455 9.24214 24.2177 9.20424 24.0862 9.19258C23.9548 9.18093 23.8223 9.19576 23.6967 9.23619C23.571 9.27663 23.4548 9.34185 23.3548 9.42799C21.6088 10.93 20.2278 12.116 16.4828 9.99799C11.5348 7.20499 9.21681 9.19499 7.35481 10.795C7.15156 10.9721 7.02526 11.2213 7.00267 11.49C6.98009 11.7586 7.06299 12.0255 7.23381 12.234C7.31714 12.3362 7.42012 12.4207 7.53666 12.4824C7.6532 12.5441 7.78094 12.5818 7.91232 12.5933C8.04369 12.6047 8.17603 12.5897 8.30151 12.5492C8.42698 12.5086 8.54304 12.4432 8.64281 12.357ZM23.3548 14.535C21.6088 16.035 20.2278 17.223 16.4828 15.105C11.5348 12.31 9.21681 14.301 7.35481 15.9C7.15156 16.0771 7.02526 16.3263 7.00267 16.595C6.98009 16.8636 7.06299 17.1305 7.23381 17.339C7.31699 17.4414 7.41986 17.526 7.53633 17.5879C7.65281 17.6498 7.78051 17.6877 7.91189 17.6993C8.04327 17.711 8.17565 17.6962 8.3012 17.6557C8.42675 17.6153 8.54291 17.5501 8.64281 17.464C10.3898 15.963 11.7698 14.777 15.5148 16.892C17.3138 17.91 18.7648 18.292 19.9718 18.292C22.0868 18.292 23.4578 17.116 24.6428 16.097C24.8464 15.9204 24.973 15.6713 24.9958 15.4028C25.0186 15.1342 24.9357 14.8674 24.7648 14.659C24.6816 14.5566 24.5786 14.4719 24.462 14.41C24.3454 14.3481 24.2175 14.3102 24.086 14.2987C23.9545 14.2871 23.8221 14.3021 23.6965 14.3427C23.5709 14.3833 23.4547 14.4487 23.3548 14.535ZM23.3548 19.641C21.6088 21.143 20.2278 22.329 16.4828 20.213C11.5348 17.418 9.21681 19.408 7.35481 21.008C7.15156 21.1851 7.02526 21.4343 7.00267 21.703C6.98009 21.9716 7.06299 22.2385 7.23381 22.447C7.31705 22.5493 7.42 22.6339 7.53655 22.6957C7.65309 22.7575 7.78087 22.7952 7.91228 22.8067C8.04369 22.8182 8.17607 22.8031 8.30156 22.7625C8.42705 22.7218 8.5431 22.6564 8.64281 22.57C10.3898 21.07 11.7698 19.885 15.5148 22C17.3138 23.016 18.7648 23.4 19.9718 23.4C22.0868 23.4 23.4578 22.222 24.6428 21.205C24.8462 21.028 24.9727 20.7788 24.9955 20.5102C25.0182 20.2416 24.9355 19.9747 24.7648 19.766C24.6815 19.6637 24.5785 19.5792 24.4619 19.5173C24.3454 19.4555 24.2176 19.4177 24.0862 19.406C23.9548 19.3944 23.8223 19.4092 23.6967 19.4495C23.5711 19.4899 23.4549 19.555 23.3548 19.641Z" fill="white"/>
<path d="M23.3548 14.535C21.6088 16.035 20.2278 17.223 16.4828 15.105C11.5348 12.31 9.21681 14.301 7.35481 15.9C7.15156 16.0771 7.02526 16.3264 7.00267 16.595C6.98009 16.8636 7.06299 17.1305 7.23381 17.339C7.31699 17.4414 7.41986 17.526 7.53633 17.5879C7.65281 17.6498 7.78051 17.6877 7.91189 17.6993C8.04327 17.711 8.17565 17.6962 8.3012 17.6557C8.42675 17.6153 8.54291 17.5501 8.64281 17.464C10.3898 15.963 11.7698 14.777 15.5148 16.892C17.3138 17.91 18.7648 18.292 19.9718 18.292C22.0868 18.292 23.4578 17.116 24.6428 16.097C24.8464 15.9204 24.973 15.6713 24.9958 15.4028C25.0186 15.1342 24.9357 14.8674 24.7648 14.659C24.6816 14.5566 24.5786 14.4719 24.462 14.41C24.3454 14.3481 24.2175 14.3102 24.086 14.2987C23.9545 14.2871 23.8221 14.3021 23.6965 14.3427C23.5709 14.3833 23.4547 14.4487 23.3548 14.535Z" fill="#71DDFF"/>
</g>
<defs>
<clipPath id="clip0_783_1001">
<rect width="32" height="32" fill="white"/>
</clipPath>
</defs>
</svg>
