<svg width="32" height="32" viewBox="0 0 32 32" fill="none" xmlns="http://www.w3.org/2000/svg">
<g clip-path="url(#clip0_783_1704)">
<rect width="32" height="32" fill="white"/>
<rect width="32" height="32" rx="11" fill="#174AFF"/>
<path fill-rule="evenodd" clip-rule="evenodd" d="M12.25 10.75C12.25 9.75544 12.6451 8.80161 13.3483 8.09835C14.0516 7.39509 15.0054 7 16 7C16.9946 7 17.9484 7.39509 18.6517 8.09835C19.3549 8.80161 19.75 9.75544 19.75 10.75C19.75 11.7446 19.3549 12.6984 18.6517 13.4017C17.9484 14.1049 16.9946 14.5 16 14.5C15.0054 14.5 14.0516 14.1049 13.3483 13.4017C12.6451 12.6984 12.25 11.7446 12.25 10.75ZM19.75 13.75C19.75 12.9544 20.0661 12.1913 20.6287 11.6287C21.1913 11.0661 21.9544 10.75 22.75 10.75C23.5456 10.75 24.3087 11.0661 24.8713 11.6287C25.4339 12.1913 25.75 12.9544 25.75 13.75C25.75 14.5456 25.4339 15.3087 24.8713 15.8713C24.3087 16.4339 23.5456 16.75 22.75 16.75C21.9544 16.75 21.1913 16.4339 20.6287 15.8713C20.0661 15.3087 19.75 14.5456 19.75 13.75ZM6.25 13.75C6.25 12.9544 6.56607 12.1913 7.12868 11.6287C7.69129 11.0661 8.45435 10.75 9.25 10.75C10.0456 10.75 10.8087 11.0661 11.3713 11.6287C11.9339 12.1913 12.25 12.9544 12.25 13.75C12.25 14.5456 11.9339 15.3087 11.3713 15.8713C10.8087 16.4339 10.0456 16.75 9.25 16.75C8.45435 16.75 7.69129 16.4339 7.12868 15.8713C6.56607 15.3087 6.25 14.5456 6.25 13.75ZM10.31 19.117C10.92 18.161 11.7611 17.3743 12.7556 16.8294C13.7502 16.2846 14.866 15.9994 16 16C16.9498 15.9991 17.8891 16.1989 18.7564 16.5862C19.6237 16.9734 20.3994 17.5395 21.0327 18.2474C21.6661 18.9552 22.1428 19.7888 22.4317 20.6936C22.7205 21.5985 22.815 22.5541 22.709 23.498C22.696 23.6153 22.6556 23.7278 22.591 23.8265C22.5263 23.9252 22.4393 24.0073 22.337 24.066C20.4086 25.1725 18.2233 25.7532 16 25.75C13.7766 25.7535 11.5913 25.1728 9.663 24.066C9.56069 24.0073 9.47368 23.9252 9.40904 23.8265C9.34441 23.7278 9.30396 23.6153 9.291 23.498C9.12305 21.9646 9.48246 20.4198 10.31 19.118V19.117Z" fill="white"/>
<path fill-rule="evenodd" clip-rule="evenodd" d="M12.2503 10.75C12.2503 9.75544 12.6454 8.80161 13.3487 8.09835C14.0519 7.39509 15.0058 7 16.0003 7C16.9949 7 17.9487 7.39509 18.652 8.09835C19.3552 8.80161 19.7503 9.75544 19.7503 10.75C19.7503 11.7446 19.3552 12.6984 18.652 13.4017C17.9487 14.1049 16.9949 14.5 16.0003 14.5C15.0058 14.5 14.0519 14.1049 13.3487 13.4017C12.6454 12.6984 12.2503 11.7446 12.2503 10.75ZM10.3103 19.117C10.9203 18.161 11.7614 17.3743 12.756 16.8294C13.7505 16.2846 14.8663 15.9994 16.0003 16C16.9502 15.9991 17.8895 16.1989 18.7567 16.5862C19.624 16.9734 20.3997 17.5395 21.0331 18.2474C21.6664 18.9552 22.1431 19.7888 22.432 20.6936C22.7209 21.5985 22.8154 22.5541 22.7093 23.498C22.6964 23.6153 22.6559 23.7278 22.5913 23.8265C22.5267 23.9252 22.4396 24.0073 22.3373 24.066C20.4089 25.1725 18.2237 25.7532 16.0003 25.75C13.7769 25.7535 11.5917 25.1728 9.66333 24.066C9.56102 24.0073 9.47401 23.9252 9.40938 23.8265C9.34474 23.7278 9.3043 23.6153 9.29133 23.498C9.12339 21.9646 9.48279 20.4198 10.3103 19.118V19.117Z" fill="#71DDFF"/>
<path d="M9.08208 18.254C8.09584 19.7764 7.63633 21.5803 7.77408 23.389C7.17359 23.298 6.58299 23.1507 6.01008 22.949L5.89508 22.909C5.79248 22.8726 5.70263 22.8072 5.63643 22.7208C5.57023 22.6344 5.53051 22.5306 5.52208 22.422L5.51208 22.301C5.47169 21.799 5.53284 21.294 5.69188 20.8161C5.85093 20.3382 6.10462 19.8972 6.4378 19.5195C6.77099 19.1418 7.17685 18.8351 7.63116 18.6177C8.08547 18.4003 8.57893 18.2766 9.08208 18.254ZM24.2261 23.389C24.3638 21.5803 23.9043 19.7764 22.9181 18.254C23.4212 18.2766 23.9147 18.4003 24.369 18.6177C24.8233 18.8351 25.2292 19.1418 25.5624 19.5195C25.8955 19.8972 26.1492 20.3382 26.3083 20.8161C26.4673 21.294 26.5285 21.799 26.4881 22.301L26.4781 22.422C26.4695 22.5304 26.4297 22.634 26.3635 22.7202C26.2973 22.8064 26.2075 22.8717 26.1051 22.908L25.9901 22.948C25.4231 23.148 24.8341 23.297 24.2261 23.389Z" fill="white"/>
</g>
<defs>
<clipPath id="clip0_783_1704">
<rect width="32" height="32" fill="white"/>
</clipPath>
</defs>
</svg>
