<svg width="32" height="32" viewBox="0 0 32 32" fill="none" xmlns="http://www.w3.org/2000/svg">
<g clip-path="url(#clip0_578_277)">
<rect y="-1.52588e-05" width="32" height="32" rx="11" fill="#808DBC"/>
<path d="M8.64306 12.357C10.3901 10.857 11.7701 9.67099 15.5151 11.787C17.3141 12.803 18.7651 13.187 19.9721 13.185C22.0871 13.185 23.4581 12.009 24.6431 10.992C24.8465 10.815 24.9729 10.5658 24.9957 10.2972C25.0185 10.0286 24.9358 9.76165 24.7651 9.55299C24.6818 9.4506 24.5788 9.36595 24.4623 9.30404C24.3457 9.24214 24.2179 9.20424 24.0865 9.19258C23.955 9.18093 23.8225 9.19576 23.6969 9.23619C23.5713 9.27663 23.455 9.34185 23.3551 9.42799C21.6091 10.93 20.2281 12.116 16.4831 9.99799C11.5351 7.20499 9.21706 9.19499 7.35506 10.795C7.15181 10.9721 7.0255 11.2213 7.00292 11.49C6.98033 11.7586 7.06323 12.0255 7.23406 12.234C7.31738 12.3362 7.42036 12.4207 7.5369 12.4824C7.65345 12.5441 7.78119 12.5818 7.91256 12.5933C8.04394 12.6047 8.17628 12.5897 8.30175 12.5492C8.42723 12.5086 8.54328 12.4432 8.64306 12.357ZM23.3551 14.535C21.6091 16.035 20.2281 17.223 16.4831 15.105C11.5351 12.31 9.21706 14.301 7.35506 15.9C7.15181 16.0771 7.0255 16.3263 7.00292 16.595C6.98033 16.8636 7.06323 17.1305 7.23406 17.339C7.31724 17.4414 7.42011 17.526 7.53658 17.5879C7.65305 17.6498 7.78076 17.6877 7.91213 17.6993C8.04351 17.711 8.1759 17.6962 8.30145 17.6557C8.42699 17.6153 8.54316 17.5501 8.64306 17.464C10.3901 15.963 11.7701 14.777 15.5151 16.892C17.3141 17.91 18.7651 18.292 19.9721 18.292C22.0871 18.292 23.4581 17.116 24.6431 16.097C24.8466 15.9204 24.9732 15.6713 24.996 15.4028C25.0188 15.1342 24.9359 14.8674 24.7651 14.659C24.6818 14.5566 24.5788 14.4719 24.4622 14.41C24.3456 14.3481 24.2178 14.3102 24.0863 14.2987C23.9548 14.2871 23.8223 14.3021 23.6967 14.3427C23.5711 14.3833 23.4549 14.4487 23.3551 14.535ZM23.3551 19.641C21.6091 21.143 20.2281 22.329 16.4831 20.213C11.5351 17.418 9.21706 19.408 7.35506 21.008C7.15181 21.1851 7.0255 21.4343 7.00292 21.703C6.98033 21.9716 7.06323 22.2385 7.23406 22.447C7.3173 22.5493 7.42025 22.6339 7.53679 22.6957C7.65334 22.7575 7.78111 22.7952 7.91252 22.8067C8.04394 22.8182 8.17632 22.8031 8.30181 22.7625C8.4273 22.7218 8.54334 22.6564 8.64306 22.57C10.3901 21.07 11.7701 19.885 15.5151 22C17.3141 23.016 18.7651 23.4 19.9721 23.4C22.0871 23.4 23.4581 22.222 24.6431 21.205C24.8465 21.028 24.9729 20.7788 24.9957 20.5102C25.0185 20.2416 24.9358 19.9747 24.7651 19.766C24.6817 19.6637 24.5787 19.5792 24.4622 19.5173C24.3456 19.4555 24.2179 19.4177 24.0864 19.406C23.955 19.3944 23.8226 19.4092 23.697 19.4495C23.5714 19.4899 23.4551 19.555 23.3551 19.641Z" fill="white"/>
</g>
<defs>
<clipPath id="clip0_578_277">
<rect width="32" height="32" fill="white"/>
</clipPath>
</defs>
</svg>
