<svg width="32" height="32" viewBox="0 0 32 32" fill="none" xmlns="http://www.w3.org/2000/svg">
<g clip-path="url(#clip0_578_266)">
<rect width="32" height="32" fill="#F4F7FF"/>
<rect width="32" height="32" rx="11" fill="#808DBC"/>
<path d="M17.2013 5.26427C16.7975 4.91191 16.1919 4.91191 15.7881 5.26427C10.6031 9.8556 8 13.849 8 17.2444C8 22.5618 12.0375 26 16.5 26C20.9625 26 25 22.5618 25 17.2444C25 13.849 22.3969 9.8556 17.2013 5.26427ZM12.0694 17.458C12.4625 17.458 12.7812 17.7356 12.8556 18.12C13.2912 20.4904 15.2781 21.3019 16.7231 21.1844C17.18 21.1631 17.5625 21.5261 17.5625 21.9853C17.5625 22.4124 17.2225 22.7647 16.7975 22.7861C14.5344 22.9249 11.8888 21.6222 11.2831 18.3869C11.2647 18.2725 11.2712 18.1553 11.3022 18.0436C11.3332 17.9319 11.388 17.8283 11.4627 17.74C11.5375 17.6516 11.6305 17.5807 11.7352 17.532C11.84 17.4833 11.954 17.458 12.0694 17.458Z" fill="white"/>
</g>
<defs>
<clipPath id="clip0_578_266">
<rect width="32" height="32" fill="white"/>
</clipPath>
</defs>
</svg>
