<svg width="60" height="60" viewBox="0 0 60 60" fill="none" xmlns="http://www.w3.org/2000/svg">
<circle cx="30" cy="30" r="30" fill="#174AFF"/>
<g clip-path="url(#clip0_1253_506)">
<path d="M20.4022 16.9316C18.0975 16.5139 15.574 18.246 14.6002 20.0546C14.2547 20.6961 14.2893 21.5947 13.9195 22.1712C13.6958 22.52 13.0458 22.7059 12.6913 22.9298C12.0065 23.3624 11.4153 23.8765 10.8944 24.4726C8.41026 27.3152 8.35177 31.4678 10.7332 34.3749C13.1931 37.3778 16.6205 37.498 20.3202 37.498H26.7186H37.7108C39.5456 37.498 41.4629 37.647 43.2889 37.485C49.1496 36.9651 52.6681 30.9661 50.2362 26.0722C49.6834 24.9595 48.8193 23.9838 47.8007 23.213C47.3445 22.8678 46.5714 22.6512 46.2095 22.2339C45.9926 21.9837 46.0931 21.5722 46.0546 21.2734C45.9545 20.496 45.7875 19.7391 45.551 18.9882C44.9287 17.0128 43.726 15.2244 42.2086 13.7353C37.3254 8.94324 28.8801 8.81818 23.6014 13.0369C22.3813 14.012 20.8622 15.4519 20.4022 16.9316Z" fill="#F4F7FF"/>
<path d="M18.5156 27.5198L20.5664 28.6623C22.9779 25.3437 26.4246 23.7765 30.6562 23.7873V23.7112H30V21.5022H30.9844C30.1403 21.1733 28.4273 21.5061 27.5391 21.6698C24.8123 22.1722 22.3734 23.3254 20.4023 25.1584C19.7059 25.8061 18.8213 26.6292 18.5156 27.5198Z" fill="#71DDFF"/>
<path d="M30 21.502V23.7109C33.9218 23.7411 37.276 25.6928 39.4336 28.6621L41.4844 27.5195C41.1575 26.567 40.1788 25.6946 39.4336 25.0059C36.9206 22.6835 33.511 21.502 30 21.502Z" fill="#174AFF"/>
<path d="M31.477 21.502V21.5781H31.8051L31.477 21.502ZM32.0512 21.5781V21.6543H32.2973L32.0512 21.5781ZM32.5434 21.6543V21.7305H32.7895L32.5434 21.6543ZM33.0082 21.7558L33.0629 21.7813L33.0082 21.7558ZM33.3364 21.832L33.391 21.8574L33.3364 21.832ZM33.6645 21.9082L33.7191 21.9336L33.6645 21.9082ZM33.9379 21.959L34.0199 22.0352L33.9379 21.959ZM34.184 22.0352L34.266 22.1113L34.184 22.0352ZM34.4301 22.1113L34.5121 22.1875L34.4301 22.1113ZM34.6762 22.1875L34.7582 22.2637L34.6762 22.1875ZM34.895 22.289L34.9496 22.3145L34.895 22.289ZM35.0863 22.3398L35.1684 22.416L35.0863 22.3398ZM35.3051 22.4414L35.3598 22.4668L35.3051 22.4414ZM35.4965 22.4922L35.5785 22.5684L35.4965 22.4922ZM35.6606 22.5684L35.7426 22.6445L35.6606 22.5684ZM35.8246 22.6445L35.9067 22.7207L35.8246 22.6445ZM35.9887 22.7207L36.0707 22.7969L35.9887 22.7207ZM36.1528 22.7969L36.2348 22.873L36.1528 22.7969ZM36.3168 22.873L36.3988 22.9492L36.3168 22.873ZM36.4809 22.9492L36.5629 23.0254L36.4809 22.9492ZM36.6449 23.0254L36.727 23.1016L36.6449 23.0254ZM36.727 23.1016L36.809 23.1777L36.727 23.1016ZM36.891 23.1777L36.9731 23.2539L36.891 23.1777ZM37.0551 23.2539L37.1371 23.3301L37.0551 23.2539ZM37.1371 23.3301L37.2192 23.4062L37.1371 23.3301ZM37.3012 23.4062L37.3832 23.4824L37.3012 23.4062ZM37.5473 23.5586L37.6293 23.6348L37.5473 23.5586ZM37.6293 23.6348L37.7113 23.7109L37.6293 23.6348ZM37.7934 23.7109L37.8754 23.7871L37.7934 23.7109ZM31.1488 23.7871V23.8633H31.477L31.1488 23.7871ZM37.8754 23.7871L37.9574 23.8633L37.8754 23.7871ZM31.8051 23.8633V23.9395H32.0512L31.8051 23.8633ZM32.2153 23.9395V24.0156H32.4613L32.2153 23.9395ZM38.1215 23.9395L38.2035 24.0156L38.1215 23.9395ZM32.6801 24.041L32.7348 24.0664L32.6801 24.041ZM38.2035 24.0156L38.2856 24.0918L38.2035 24.0156ZM32.9535 24.0918L33.0356 24.168L32.9535 24.0918ZM33.2543 24.1933L33.309 24.2188L33.2543 24.1933ZM38.4496 24.168L38.5317 24.2441L38.4496 24.168ZM33.5004 24.2695L33.5551 24.2949L33.5004 24.2695ZM38.5317 24.2441L38.6137 24.3203L38.5317 24.2441ZM33.7465 24.3457L33.8012 24.3711L33.7465 24.3457ZM38.6137 24.3203L38.6957 24.3965L38.6137 24.3203ZM33.9379 24.3965L34.0199 24.4727L33.9379 24.3965ZM38.6957 24.3965L38.7778 24.4727L38.6957 24.3965ZM34.184 24.4727L34.266 24.5488L34.184 24.4727ZM34.3481 24.5488L34.4301 24.625L34.3481 24.5488ZM34.5121 24.625L34.5942 24.7012L34.5121 24.625ZM39.0238 24.625L39.1059 24.7012L39.0238 24.625ZM34.7309 24.7265L34.7855 24.752L34.7309 24.7265ZM39.1059 24.7012L39.1879 24.7773L39.1059 24.7012ZM34.9223 24.7773L35.0043 24.8535L34.9223 24.7773ZM39.1879 24.7773L39.2699 24.8535L39.1879 24.7773ZM35.0043 24.8535L35.0863 24.9297L35.0043 24.8535ZM39.2699 24.8535L39.352 24.9297L39.2699 24.8535ZM35.1684 24.9297L35.2504 25.0059L35.1684 24.9297ZM39.352 24.9297L39.434 25.0059L39.352 24.9297ZM35.3324 25.0059L35.4145 25.082L35.3324 25.0059ZM39.434 25.0059L39.516 25.082L39.434 25.0059ZM35.4965 25.082L35.5785 25.1582L35.4965 25.082ZM39.516 25.082L39.5981 25.1582L39.516 25.082ZM35.6606 25.1582L35.7426 25.2344L35.6606 25.1582ZM39.5981 25.1582L39.6801 25.2344L39.5981 25.1582ZM35.7426 25.2344L35.8246 25.3105L35.7426 25.2344ZM39.6801 25.2344L39.7621 25.3105L39.6801 25.2344ZM35.9067 25.3105L35.9887 25.3867L35.9067 25.3105ZM39.7621 25.3105L39.8442 25.3867L39.7621 25.3105ZM39.8442 25.3867L39.9262 25.4629L39.8442 25.3867ZM36.1528 25.4629L36.2348 25.5391L36.1528 25.4629ZM39.9262 25.4629L40.0082 25.5391L39.9262 25.4629ZM36.2348 25.5391L36.3168 25.6152L36.2348 25.5391ZM36.3988 25.6152L36.4809 25.6914L36.3988 25.6152ZM36.4809 25.6914L36.5629 25.7676L36.4809 25.6914ZM36.727 25.8438L36.809 25.9199L36.727 25.8438ZM40.2543 25.8438L40.3363 25.9199L40.2543 25.8438ZM36.809 25.9199L36.891 25.9961L36.809 25.9199ZM40.3363 25.9199L40.4184 25.9961L40.3363 25.9199ZM24.8324 31.0234C26.019 29.0896 28.2266 28.314 30.4926 28.3574V28.2812H30.0004V26.0723H30.7387C30.3299 25.9131 29.8578 26.0653 29.4262 26.072C27.4751 26.1024 25.4733 26.9399 24.0942 28.2054C23.7376 28.5325 22.7402 29.2668 22.7909 29.7968C22.8343 30.2499 24.4074 30.8985 24.8324 31.0234ZM40.4184 25.9961L40.5004 26.0723L40.4184 25.9961Z" fill="#71DDFF"/>
<path d="M30 26.0723V28.2812C32.06 28.3634 34.1379 29.3074 35.168 31.0234C35.593 30.8985 37.1661 30.2499 37.2095 29.7968C37.2691 29.1729 35.9438 28.2029 35.4961 27.8471C33.9574 26.6242 31.9951 26.0723 30 26.0723Z" fill="#174AFF"/>
<path d="M31.1484 26.0723V26.1484H31.3945L31.1484 26.0723ZM31.6953 26.1738L31.75 26.1992L31.6953 26.1738ZM37.1367 26.1484L37.2188 26.2246L37.1367 26.1484ZM32.1055 26.25L32.1601 26.2754L32.1055 26.25ZM37.2188 26.2246L37.3008 26.3008L37.2188 26.2246ZM40.582 26.2246L40.6641 26.3008L40.582 26.2246ZM32.3789 26.3008L32.4609 26.377L32.3789 26.3008ZM37.3008 26.3008L37.3828 26.377L37.3008 26.3008ZM40.6641 26.3008L40.7461 26.377L40.6641 26.3008ZM32.6797 26.4023L32.7343 26.4278L32.6797 26.4023ZM37.3828 26.377L37.4648 26.4531L37.3828 26.377ZM40.7461 26.377L40.8281 26.4531L40.7461 26.377ZM32.8711 26.4531L32.9531 26.5293L32.8711 26.4531ZM37.4648 26.4531L37.5469 26.5293L37.4648 26.4531ZM33.1172 26.5293L33.1992 26.6055L33.1172 26.5293ZM40.8281 26.5293L40.9102 26.6055L40.8281 26.5293ZM33.2812 26.6055L33.3633 26.6816L33.2812 26.6055ZM40.9102 26.6055L40.9922 26.6816L40.9102 26.6055ZM33.5273 26.6816L33.6094 26.7578L33.5273 26.6816ZM33.6914 26.7578L33.7734 26.834L33.6914 26.7578ZM33.8555 26.834L33.9375 26.9102L33.8555 26.834ZM37.875 26.834L37.957 26.9102L37.875 26.834ZM41.0742 26.834L41.1562 26.9102L41.0742 26.834ZM34.0195 26.9102L34.1016 26.9863L34.0195 26.9102ZM37.957 26.9102L38.0391 26.9863L37.957 26.9102ZM41.1562 26.9102L41.2383 26.9863L41.1562 26.9102ZM34.1836 26.9863L34.2656 27.0625L34.1836 26.9863ZM38.0391 26.9863L38.1211 27.0625L38.0391 26.9863ZM34.2656 27.0625L34.3477 27.1387L34.2656 27.0625ZM38.1211 27.0625L38.2031 27.1387L38.1211 27.0625ZM41.2383 27.0625L41.3203 27.1387L41.2383 27.0625ZM34.4297 27.1387L34.5117 27.2148L34.4297 27.1387ZM38.2031 27.1387L38.2852 27.2148L38.2031 27.1387ZM34.5938 27.2148L34.6758 27.291L34.5938 27.2148ZM38.2852 27.2148L38.3672 27.291L38.2852 27.2148ZM34.6758 27.291L34.7578 27.3672L34.6758 27.291ZM38.3672 27.291L38.4492 27.3672L38.3672 27.291ZM41.4023 27.291L41.4844 27.3672L41.4023 27.291ZM34.8398 27.3672L34.9219 27.4434L34.8398 27.3672ZM34.9219 27.4434L35.0039 27.5195L34.9219 27.4434ZM41.4844 27.4434L41.5664 27.5195L41.4844 27.4434ZM38.5312 27.5195L38.6133 27.5957L38.5312 27.5195ZM41.4023 27.5195L41.4844 27.5957L41.4023 27.5195ZM35.168 27.5957L35.25 27.6719L35.168 27.5957ZM38.6133 27.5957L38.6953 27.6719L38.6133 27.5957ZM41.2383 27.5957L41.3203 27.6719L41.2383 27.5957ZM35.25 27.6719L35.332 27.748L35.25 27.6719ZM38.6953 27.6719L38.7773 27.748L38.6953 27.6719ZM41.1562 27.6719L41.2383 27.748L41.1562 27.6719ZM40.9922 27.748L41.0742 27.8242L40.9922 27.748ZM35.4961 27.8242L35.5781 27.9004L35.4961 27.8242ZM40.8281 27.8242L40.9102 27.9004L40.8281 27.8242ZM35.5781 27.9004L35.6602 27.9766L35.5781 27.9004ZM38.8594 27.9004L38.9414 27.9766L38.8594 27.9004ZM40.7461 27.9004L40.8281 27.9766L40.7461 27.9004ZM35.6602 27.9766L35.7422 28.0527L35.6602 27.9766ZM38.9414 27.9766L39.0234 28.0527L38.9414 27.9766ZM40.582 27.9766L40.6641 28.0527L40.582 27.9766ZM35.7422 28.0527L35.8242 28.1289L35.7422 28.0527ZM35.8242 28.1289L35.9062 28.2051L35.8242 28.1289ZM39.0234 28.1289L39.1055 28.2051L39.0234 28.1289ZM40.3359 28.1289L40.418 28.2051L40.3359 28.1289ZM35.9062 28.2051L35.9883 28.2812L35.9062 28.2051ZM39.1055 28.2051L39.1875 28.2812L39.1055 28.2051ZM40.1719 28.2051L40.2539 28.2812L40.1719 28.2051ZM35.9883 28.2812L36.0703 28.3574L35.9883 28.2812ZM30.9023 28.3574V28.4336H31.1484L30.9023 28.3574ZM36.0703 28.3574L36.1523 28.4336L36.0703 28.3574ZM39.1875 28.3574L39.2695 28.4336L39.1875 28.3574ZM39.9258 28.3574L40.0078 28.4336L39.9258 28.3574ZM31.3672 28.459L31.4218 28.4844L31.3672 28.459ZM36.1523 28.4336L36.2344 28.5098L36.1523 28.4336ZM39.2695 28.4336L39.3516 28.5098L39.2695 28.4336ZM39.7617 28.4336L39.8438 28.5098L39.7617 28.4336ZM31.6953 28.5351L31.75 28.5606L31.6953 28.5351ZM36.2344 28.5098L36.3164 28.5859L36.2344 28.5098ZM39.6797 28.5098L39.7617 28.5859L39.6797 28.5098ZM31.9688 28.5859L32.0508 28.6621L31.9688 28.5859ZM36.3164 28.5859L36.3984 28.6621L36.3164 28.5859ZM39.3516 28.5859L39.4336 28.6621L39.3516 28.5859ZM39.5156 28.5859L39.5977 28.6621L39.5156 28.5859ZM32.1875 28.6875L32.2422 28.7129L32.1875 28.6875ZM36.3984 28.6621L36.4805 28.7383L36.3984 28.6621ZM32.3789 28.7383L32.4609 28.8145L32.3789 28.7383ZM36.4805 28.7383L36.5625 28.8145L36.4805 28.7383ZM32.543 28.8145L32.625 28.8906L32.543 28.8145ZM32.707 28.8906L32.7891 28.9668L32.707 28.8906ZM32.8711 28.9668L32.9531 29.043L32.8711 28.9668ZM33.0352 29.043L33.1172 29.1191L33.0352 29.043ZM36.7266 29.043L36.8086 29.1191L36.7266 29.043ZM33.1992 29.1191L33.2812 29.1953L33.1992 29.1191ZM36.8086 29.1191L36.8906 29.1953L36.8086 29.1191ZM33.2812 29.1953L33.3633 29.2715L33.2812 29.1953ZM33.4453 29.2715L33.5273 29.3477L33.4453 29.2715ZM33.5273 29.3477L33.6094 29.4238L33.5273 29.3477ZM36.9727 29.3477L37.0547 29.4238L36.9727 29.3477ZM37.0547 29.4238L37.1367 29.5L37.0547 29.4238ZM33.7734 29.5L33.8555 29.5762L33.7734 29.5ZM33.8555 29.5762L33.9375 29.6523L33.8555 29.5762ZM37.1367 29.5762L37.2188 29.6523L37.1367 29.5762ZM33.9375 29.6523L34.0195 29.7285L33.9375 29.6523ZM37.2188 29.6523L37.3008 29.7285L37.2188 29.6523ZM34.0195 29.7285L34.1016 29.8047L34.0195 29.7285ZM34.1016 29.8047L34.1836 29.8809L34.1016 29.8047ZM37.3008 29.8047L37.3828 29.8809L37.3008 29.8047ZM37.2188 29.8809L37.3008 29.957L37.2188 29.8809ZM37.1367 29.957L37.2188 30.0332L37.1367 29.957ZM36.9727 30.0332L37.0547 30.1094L36.9727 30.0332ZM34.4297 30.1094L34.5117 30.1855L34.4297 30.1094ZM36.8086 30.1094L36.8906 30.1855L36.8086 30.1094ZM34.5117 30.1855L34.5938 30.2617L34.5117 30.1855ZM36.7266 30.1855L36.8086 30.2617L36.7266 30.1855ZM34.5938 30.2617L34.6758 30.3379L34.5938 30.2617ZM36.5625 30.2617L36.6445 30.3379L36.5625 30.2617ZM34.6758 30.3379L34.7578 30.4141L34.6758 30.3379ZM36.3984 30.3379L36.4805 30.4141L36.3984 30.3379ZM34.7578 30.4141L34.8398 30.4902L34.7578 30.4141ZM36.3164 30.4141L36.3984 30.4902L36.3164 30.4141ZM36.1523 30.4902L36.2344 30.5664L36.1523 30.4902Z" fill="#71DDFF"/>
<path d="M34.8398 30.5664L34.9219 30.6426L34.8398 30.5664ZM35.9883 30.5664L36.0703 30.6426L35.9883 30.5664Z" fill="#71DDFF"/>
<path d="M30.0008 32.9278V30.7188H30.4109C29.6181 30.4314 28.2346 30.9594 27.6219 31.4294C27.4129 31.5896 26.9206 31.9305 27.0034 32.2281C27.0897 32.5377 27.7617 32.7868 28.032 32.9424C28.2534 33.0698 28.5088 33.2757 28.7703 33.32C29.1478 33.3842 29.6028 32.9834 30.0008 32.9278ZM34.9227 30.6426L35.0047 30.7188L34.9227 30.6426ZM35.907 30.6426L35.9891 30.7188L35.907 30.6426Z" fill="#71DDFF"/>
<path d="M30 30.7188V32.9277C30.4161 32.9676 30.8398 33.3864 31.2305 33.32C31.492 33.2757 31.7473 33.0698 31.9688 32.9424C32.2391 32.7868 32.911 32.5377 32.9973 32.2281C33.0744 31.9512 32.6514 31.6503 32.4609 31.4946C31.7807 30.9388 30.8884 30.721 30 30.7188Z" fill="#174AFF"/>
<path d="M30.6562 30.7188V30.7949H30.9023L30.6562 30.7188ZM35.7422 30.7188L35.8242 30.7949L35.7422 30.7188ZM31.1211 30.8203L31.1758 30.8457L31.1211 30.8203ZM35.5781 30.7949L35.6602 30.8711L35.5781 30.7949ZM31.3125 30.8711L31.3945 30.9473L31.3125 30.8711ZM35.0859 30.8711L35.168 30.9473L35.0859 30.8711ZM35.4961 30.8711L35.5781 30.9473L35.4961 30.8711ZM31.5586 30.9473L31.6406 31.0234L31.5586 30.9473ZM35.332 30.9473L35.4141 31.0234L35.332 30.9473ZM31.7227 31.0234L31.8047 31.0996L31.7227 31.0234ZM31.8867 31.0996L31.9688 31.1758L31.8867 31.0996ZM32.1328 31.252L32.2148 31.3281L32.1328 31.252ZM32.3789 31.4043L32.4609 31.4805L32.3789 31.4043ZM32.4609 31.4805L32.543 31.5566L32.4609 31.4805ZM32.543 31.5566L32.625 31.6328L32.543 31.5566ZM32.625 31.6328L32.707 31.709L32.625 31.6328ZM32.707 31.709L32.7891 31.7852L32.707 31.709ZM32.7891 31.7852L32.8711 31.8613L32.7891 31.7852ZM32.8711 31.8613L32.9531 31.9375L32.8711 31.8613ZM33.0352 32.0898L33.1172 32.166L33.0352 32.0898ZM33.0352 32.2422L33.1172 32.3184L33.0352 32.2422ZM32.9531 32.3184L33.0352 32.3945L32.9531 32.3184ZM32.7891 32.3945L32.8711 32.4707L32.7891 32.3945ZM32.543 32.5469L32.625 32.623L32.543 32.5469ZM32.3789 32.623L32.4609 32.6992L32.3789 32.623ZM32.2969 32.6992L32.3789 32.7754L32.2969 32.6992ZM32.1328 32.7754L32.2148 32.8516L32.1328 32.7754ZM30.1641 32.9277V33.0039H30.4102L30.1641 32.9277ZM31.8867 32.9277L31.9688 33.0039L31.8867 32.9277ZM30.4922 33.0039L30.5742 33.0801L30.4922 33.0039ZM31.7227 33.0039L31.8047 33.0801L31.7227 33.0039ZM30.6562 33.0801L30.7383 33.1562L30.6562 33.0801ZM31.6406 33.0801L31.7227 33.1562L31.6406 33.0801ZM30.7383 33.1562L30.8203 33.2324L30.7383 33.1562ZM31.4766 33.1562L31.5586 33.2324L31.4766 33.1562ZM31.2305 33.3086L31.3125 33.3848L31.2305 33.3086ZM31.0391 33.4101L31.0937 33.4356L31.0391 33.4101Z" fill="#71DDFF"/>
<path d="M21.3867 37.498V44.4297H18.7617C18.9304 45.2374 18.9304 45.9071 18.7617 46.7148H23.8477V37.498H21.3867Z" fill="#F4F7FF"/>
<path d="M28.7695 37.498V42.2969H31.2305V37.498H28.7695Z" fill="#F4F7FF"/>
<path d="M36.1523 37.498V46.7148H41.2383V44.4297H38.6133V37.498H36.1523Z" fill="#F4F7FF"/>
<path d="M14.4135 42.1801C12.0292 42.595 10.8376 45.2245 11.9012 47.1718C12.6756 48.5898 14.4007 49.252 16.0541 48.9643C18.4308 48.5508 19.6164 45.9229 18.5662 43.9726C17.7986 42.547 16.0643 41.8929 14.4135 42.1801ZM29.9995 48.9999V42.1445C26.1741 42.1468 24.8135 47.1494 28.3588 48.7036C28.8994 48.9406 29.4099 48.9999 29.9995 48.9999Z" fill="#71DDFF"/>
<path d="M30 42.1444V48.9999C30.5505 48.9988 31.057 48.9625 31.5586 48.7311C35.0319 47.1292 33.9526 42.1546 30 42.1444ZM43.9453 42.1801C41.5829 42.5911 40.3936 45.2237 41.4333 47.1718C42.1926 48.5944 43.9434 49.2501 45.5859 48.9643C48 48.5442 49.1964 45.8441 48.0551 43.8964C47.2507 42.5238 45.5741 41.8967 43.9453 42.1801Z" fill="#71DDFF"/>
<path d="M31.4766 42.373L31.5586 42.4492L31.4766 42.373ZM31.6406 42.4492L31.7227 42.5254L31.6406 42.4492ZM31.8047 42.5254L31.8867 42.6016L31.8047 42.5254ZM32.0508 42.6777L32.1328 42.7539L32.0508 42.6777ZM32.2969 42.8301L32.3789 42.9062L32.2969 42.8301ZM32.4609 42.9824L32.543 43.0586L32.4609 42.9824ZM32.7891 43.2871L32.8711 43.3633L32.7891 43.2871ZM32.8711 43.3633L32.9531 43.4395L32.8711 43.3633ZM33.1992 43.8203L33.2812 43.8965L33.1992 43.8203ZM33.3633 44.125L33.4453 44.2012L33.3633 44.125ZM33.4453 44.3535L33.5273 44.4297L33.4453 44.3535ZM33.5547 44.5567L33.5821 44.6074L33.5547 44.5567ZM33.6094 44.8867L33.6914 44.9629L33.6094 44.8867ZM33.6094 46.1816L33.6914 46.2578L33.6094 46.1816ZM33.5273 46.5625L33.6094 46.6387L33.5273 46.5625ZM33.4453 46.7148L33.5273 46.791L33.4453 46.7148ZM33.3633 46.9434L33.4453 47.0195L33.3633 46.9434ZM33.2812 47.0957L33.3633 47.1719L33.2812 47.0957ZM33.1992 47.248L33.2812 47.3242L33.1992 47.248ZM33.0352 47.4766L33.1172 47.5527L33.0352 47.4766ZM32.707 47.8574L32.7891 47.9336L32.707 47.8574ZM32.625 47.9336L32.707 48.0098L32.625 47.9336ZM32.4609 48.0859L32.543 48.1621L32.4609 48.0859ZM32.2969 48.2383L32.3789 48.3145L32.2969 48.2383ZM32.0508 48.3906L32.1328 48.4668L32.0508 48.3906ZM31.8047 48.543L31.8867 48.6191L31.8047 48.543ZM31.4766 48.6953L31.5586 48.7715L31.4766 48.6953ZM30.6562 48.9238L30.7383 49L30.6562 48.9238Z" fill="#71DDFF"/>
</g>
<defs>
<clipPath id="clip0_1253_506">
<rect width="42" height="39" fill="white" transform="translate(9 10)"/>
</clipPath>
</defs>
</svg>
