<svg width="40" height="40" viewBox="0 0 40 40" fill="none" xmlns="http://www.w3.org/2000/svg">
<circle cx="20" cy="20" r="20" fill="#174AFF"/>
<g clip-path="url(#clip0_790_521)">
<path d="M16.8631 30.5253H23.1388V25.0903H16.8631V30.5253ZM20.0009 33.3333C22.162 33.3333 22.8341 32.2524 23.0441 31.5799H16.9578C17.1677 32.2534 17.8398 33.3333 20.0009 33.3333ZM20.0009 6.67084C17.8826 6.67084 15.851 7.44704 14.3531 8.82868C12.8552 10.2103 12.0137 12.0842 12.0137 14.0382C12.0137 18.1008 16.5151 19.2343 16.8323 24.0367H18.2814C18.2723 24.0094 18.2551 23.9841 18.2494 23.9525L15.9674 12.3784C15.9459 12.2547 15.9728 12.128 16.0432 12.0209C16.1137 11.9138 16.2231 11.8332 16.352 11.7936C16.4809 11.754 16.6208 11.758 16.7468 11.8048C16.8728 11.8516 16.9767 11.9381 17.0399 12.049L17.6709 13.213L18.3019 12.048C18.3495 11.9609 18.4223 11.8878 18.5122 11.8367C18.6022 11.7856 18.7057 11.7586 18.8114 11.7586C18.917 11.7586 19.0206 11.7856 19.1106 11.8367C19.2005 11.8878 19.2733 11.9609 19.3209 12.048L19.9519 13.212L20.5829 12.0469C20.6298 11.9592 20.7024 11.8854 20.7924 11.8338C20.8824 11.7822 20.9863 11.7549 21.0923 11.7549C21.1983 11.7549 21.3022 11.7822 21.3922 11.8338C21.4823 11.8854 21.5549 11.9592 21.6018 12.0469L22.2339 13.2109L22.8649 12.0458C22.9275 11.9345 23.0311 11.8474 23.1571 11.8003C23.2831 11.7532 23.4233 11.7491 23.5522 11.7889C23.6812 11.8286 23.7905 11.9095 23.8605 12.017C23.9305 12.1245 23.9566 12.2516 23.9341 12.3753L21.652 23.9504C21.6474 23.982 21.6292 24.0062 21.6201 24.0325H23.1662C23.4834 19.2311 27.9859 18.0966 27.9859 14.034C27.9859 9.9672 24.4099 6.66663 19.9986 6.66663L20.0009 6.67084ZM22.2351 14.9149C22.1294 14.9153 22.0257 14.8884 21.9358 14.8372C21.8459 14.7861 21.7732 14.7127 21.7262 14.6255L21.094 13.4625L20.463 14.6265C20.4151 14.7135 20.342 14.7865 20.2518 14.8375C20.1617 14.8886 20.058 14.9156 19.9522 14.9157C19.8464 14.9159 19.7427 14.889 19.6524 14.8381C19.5622 14.7873 19.4889 14.7144 19.4407 14.6276L18.8097 13.4646L18.1787 14.6286C18.1318 14.7161 18.0592 14.7896 17.9693 14.841C17.8793 14.8923 17.7756 14.9194 17.6698 14.9191H17.6276L19.2878 23.3389H20.6194L22.2784 14.9191H22.2351V14.9149Z" fill="white"/>
<path d="M16.8629 30.5253H23.1386V25.0903H16.8629V30.5253ZM20.0007 33.3333C22.1618 33.3333 22.8339 32.2524 23.0439 31.5799H16.9576C17.1675 32.2534 17.8396 33.3333 20.0007 33.3333ZM22.2349 14.9149C22.1292 14.9153 22.0255 14.8884 21.9356 14.8372C21.8457 14.7861 21.773 14.7127 21.726 14.6255L21.0938 13.4625L20.4628 14.6265C20.4149 14.7135 20.3418 14.7865 20.2516 14.8375C20.1615 14.8886 20.0578 14.9156 19.952 14.9157C19.8462 14.9158 19.7425 14.889 19.6522 14.8381C19.562 14.7873 19.4887 14.7144 19.4405 14.6276L18.8095 13.4646L18.1785 14.6286C18.1316 14.7161 18.059 14.7896 17.9691 14.841C17.8791 14.8923 17.7754 14.9194 17.6696 14.9191H17.6274L19.2876 23.3389H20.6192L22.2782 14.9191H22.2349V14.9149Z" fill="#71DDFF"/>
</g>
<defs>
<clipPath id="clip0_790_521">
<rect width="25" height="26.6667" fill="white" transform="translate(7.5 6.66663)"/>
</clipPath>
</defs>
</svg>
