<svg width="60" height="60" viewBox="0 0 60 60" fill="none" xmlns="http://www.w3.org/2000/svg">
<mask id="mask0_786_383" style="mask-type:alpha" maskUnits="userSpaceOnUse" x="0" y="0" width="60" height="60">
<circle cx="30" cy="30" r="30" fill="#D7D7F8"/>
</mask>
<g mask="url(#mask0_786_383)">
<circle cx="30" cy="30" r="30" fill="#CACAF4"/>
<circle cx="30" cy="30" r="23" fill="#174AFF"/>
<path d="M41.5675 27.2499H46.0943V29.2797H41.5675V27.2499ZM38.1724 21.7552L41.3729 18.8851L42.9731 20.3201L39.7727 23.1903L38.1724 21.7552ZM38.1724 34.7744L39.7727 33.3394L42.9731 36.2095L41.3729 37.6446L38.1724 34.7744ZM31.3823 16.0859H33.6457V20.1456H31.3823V16.0859ZM32.514 22.1754C32.1346 22.1776 31.756 22.2081 31.3823 22.2667V24.3493C31.7511 24.2581 32.1314 24.2097 32.514 24.2052C33.7145 24.2052 34.8659 24.6329 35.7149 25.3942C36.5638 26.1556 37.0407 27.1881 37.0407 28.2648C37.0407 29.3415 36.5638 30.3741 35.7149 31.1354C34.8659 31.8968 33.7145 32.3245 32.514 32.3245V34.3543C34.3148 34.3543 36.0419 33.7127 37.3153 32.5707C38.5887 31.4287 39.3041 29.8799 39.3041 28.2648C39.3041 26.6498 38.5887 25.1009 37.3153 23.9589C36.0419 22.8169 34.3148 22.1754 32.514 22.1754ZM23.4604 34.541V21.1605H21.197V34.541C20.4419 34.7804 19.8055 35.2515 19.4003 35.871C18.995 36.4905 18.8471 37.2186 18.9825 37.9265C19.1179 38.6344 19.528 39.2765 20.1404 39.7395C20.7527 40.2024 21.5278 40.4563 22.3287 40.4563C23.1296 40.4563 23.9047 40.2024 24.517 39.7395C25.1293 39.2765 25.5395 38.6344 25.6749 37.9265C25.8103 37.2186 25.6623 36.4905 25.2571 35.871C24.8519 35.2515 24.2155 34.7804 23.4604 34.541Z" fill="white"/>
<path d="M32.514 22.1754C32.1346 22.1776 31.756 22.2081 31.3823 22.2667V24.3493C31.7511 24.2581 32.1314 24.2097 32.514 24.2052C33.7145 24.2052 34.8659 24.6329 35.7149 25.3942C36.5638 26.1556 37.0407 27.1881 37.0407 28.2648C37.0407 29.3415 36.5638 30.3741 35.7149 31.1354C34.8659 31.8967 33.7145 32.3244 32.514 32.3244V34.3543C34.3148 34.3543 36.0419 33.7127 37.3153 32.5707C38.5887 31.4287 39.3041 29.8798 39.3041 28.2648C39.3041 26.6498 38.5887 25.1009 37.3153 23.9589C36.0419 22.8169 34.3148 22.1754 32.514 22.1754ZM23.4604 34.541V21.1605H21.197V34.541C20.4419 34.7804 19.8055 35.2515 19.4003 35.871C18.995 36.4905 18.8471 37.2186 18.9825 37.9265C19.1179 38.6344 19.528 39.2765 20.1404 39.7395C20.7527 40.2024 21.5278 40.4563 22.3287 40.4563C23.1296 40.4563 23.9047 40.2024 24.517 39.7395C25.1293 39.2765 25.5395 38.6344 25.6749 37.9265C25.8103 37.2186 25.6623 36.4905 25.2571 35.871C24.8519 35.2515 24.2155 34.7804 23.4604 34.541Z" fill="#71DDFF"/>
<path d="M22.3291 44.5033C20.7696 44.5049 19.2443 44.0933 17.9448 43.32C16.6454 42.5468 15.6296 41.4465 15.025 40.1573C14.4205 38.8681 14.2542 37.4474 14.547 36.0737C14.8397 34.7 15.5785 33.4345 16.6706 32.4361V21.1605C16.6706 19.8146 17.2668 18.5239 18.328 17.5722C19.3891 16.6206 20.8284 16.0859 22.3291 16.0859C23.8298 16.0859 25.2691 16.6206 26.3303 17.5722C27.3914 18.5239 27.9876 19.8146 27.9876 21.1605V32.4361C29.0797 33.4345 29.8185 34.7 30.1113 36.0737C30.404 37.4474 30.2377 38.8681 29.6332 40.1573C29.0286 41.4465 28.0129 42.5468 26.7134 43.32C25.4139 44.0933 23.8886 44.5049 22.3291 44.5033ZM22.3291 18.1158C21.429 18.1166 20.5659 18.4376 19.9294 19.0084C19.2929 19.5792 18.9349 20.3532 18.934 21.1605V33.3221L18.5583 33.6256C17.7037 34.3105 17.1013 35.2121 16.8306 36.2109C16.56 37.2097 16.634 38.2587 17.0428 39.219C17.4515 40.1793 18.1759 41.0056 19.1198 41.5885C20.0638 42.1715 21.183 42.4837 22.3291 42.4837C23.4753 42.4837 24.5944 42.1715 25.5384 41.5885C26.4824 41.0056 27.2067 40.1793 27.6155 39.219C28.0242 38.2587 28.0982 37.2097 27.8276 36.2109C27.557 35.2121 26.9545 34.3105 26.0999 33.6256L25.7242 33.3221V21.1605C25.7233 20.3532 25.3653 19.5792 24.7288 19.0084C24.0923 18.4376 23.2293 18.1166 22.3291 18.1158Z" fill="white"/>
<ellipse cx="45.0008" cy="14.0561" rx="6.42857" ry="6.65816" fill="#0D1458"/>
<path d="M44.5093 10.8645C44.6601 10.384 45.34 10.384 45.4907 10.8645L45.9179 12.2261C45.9852 12.4406 46.1839 12.5865 46.4086 12.5865H47.8284C48.3222 12.5865 48.5322 13.2148 48.1376 13.5117L46.9583 14.3991C46.7844 14.53 46.7117 14.7563 46.7768 14.964L47.2199 16.3763C47.3695 16.8533 46.8194 17.2418 46.42 16.9412L45.3093 16.1054C45.1261 15.9676 44.8739 15.9676 44.6908 16.1054L43.5801 16.9412C43.1807 17.2418 42.6305 16.8533 42.7802 16.3763L43.2233 14.964C43.2884 14.7563 43.2157 14.53 43.0418 14.3991L41.8625 13.5117C41.4679 13.2148 41.6779 12.5865 42.1717 12.5865H43.5914C43.8162 12.5865 44.0149 12.4406 44.0822 12.2261L44.5093 10.8645Z" fill="white"/>
</g>
</svg>
