<svg width="206" height="39" viewBox="0 0 206 39" fill="none" xmlns="http://www.w3.org/2000/svg">
<g clip-path="url(#clip0_783_698)">
<path d="M11.4022 6.93169C9.09747 6.51405 6.57405 8.24611 5.60016 10.0547C5.25474 10.6963 5.28935 11.5948 4.91953 12.1713C4.69579 12.5201 4.04576 12.706 3.69128 12.9299C3.00655 13.3625 2.41534 13.8766 1.89438 14.4727C-0.589739 17.3153 -0.648234 21.468 1.73323 24.375C4.19314 27.3779 7.6205 27.4981 11.3202 27.4981H17.7186H28.7108C30.5456 27.4981 32.4629 27.6472 34.2889 27.4851C40.1496 26.9652 43.6681 20.9662 41.2362 16.0723C40.6834 14.9597 39.8193 13.9839 38.8007 13.2131C38.3445 12.8679 37.5714 12.6514 37.2095 12.234C36.9926 11.9838 37.0931 11.5723 37.0546 11.2735C36.9545 10.4962 36.7875 9.73923 36.551 8.98833C35.9287 7.01291 34.726 5.22456 33.2086 3.73547C28.3254 -1.05664 19.8801 -1.1817 14.6014 3.03699C13.3813 4.0121 11.8622 5.45205 11.4022 6.93169Z" fill="#F4F7FF"/>
<path d="M9.51562 17.5195L11.5664 18.6621C13.9779 15.3434 17.4246 13.7763 21.6562 13.7871V13.7109H21V11.5019H21.9844C21.1403 11.173 19.4273 11.5058 18.5391 11.6695C15.8123 12.1719 13.3734 13.3251 11.4023 15.1582C10.7059 15.8059 9.82127 16.6289 9.51562 17.5195Z" fill="#71DDFF"/>
<path d="M21 11.502V13.7109C24.9218 13.7411 28.276 15.6928 30.4336 18.6621L32.4844 17.5195C32.1575 16.567 31.1788 15.6946 30.4336 15.0059C27.9206 12.6835 24.511 11.502 21 11.502Z" fill="#174AFF"/>
<path d="M22.477 11.502V11.5781H22.8051L22.477 11.502ZM23.0512 11.5781V11.6543H23.2973L23.0512 11.5781ZM23.5434 11.6543V11.7305H23.7895L23.5434 11.6543ZM24.0082 11.7558L24.0629 11.7813L24.0082 11.7558ZM24.3364 11.832L24.391 11.8574L24.3364 11.832ZM24.6645 11.9082L24.7191 11.9336L24.6645 11.9082ZM24.9379 11.959L25.0199 12.0352L24.9379 11.959ZM25.184 12.0352L25.266 12.1113L25.184 12.0352ZM25.4301 12.1113L25.5121 12.1875L25.4301 12.1113ZM25.6762 12.1875L25.7582 12.2637L25.6762 12.1875ZM25.895 12.289L25.9496 12.3145L25.895 12.289ZM26.0863 12.3398L26.1684 12.416L26.0863 12.3398ZM26.3051 12.4414L26.3598 12.4668L26.3051 12.4414ZM26.4965 12.4922L26.5785 12.5684L26.4965 12.4922ZM26.6606 12.5684L26.7426 12.6445L26.6606 12.5684ZM26.8246 12.6445L26.9067 12.7207L26.8246 12.6445ZM26.9887 12.7207L27.0707 12.7969L26.9887 12.7207ZM27.1528 12.7969L27.2348 12.873L27.1528 12.7969ZM27.3168 12.873L27.3988 12.9492L27.3168 12.873ZM27.4809 12.9492L27.5629 13.0254L27.4809 12.9492ZM27.6449 13.0254L27.727 13.1016L27.6449 13.0254ZM27.727 13.1016L27.809 13.1777L27.727 13.1016ZM27.891 13.1777L27.9731 13.2539L27.891 13.1777ZM28.0551 13.2539L28.1371 13.3301L28.0551 13.2539ZM28.1371 13.3301L28.2192 13.4062L28.1371 13.3301ZM28.3012 13.4062L28.3832 13.4824L28.3012 13.4062ZM28.5473 13.5586L28.6293 13.6348L28.5473 13.5586ZM28.6293 13.6348L28.7113 13.7109L28.6293 13.6348ZM28.7934 13.7109L28.8754 13.7871L28.7934 13.7109ZM22.1488 13.7871V13.8633H22.477L22.1488 13.7871ZM28.8754 13.7871L28.9574 13.8633L28.8754 13.7871ZM22.8051 13.8633V13.9395H23.0512L22.8051 13.8633ZM23.2153 13.9395V14.0156H23.4613L23.2153 13.9395ZM29.1215 13.9395L29.2035 14.0156L29.1215 13.9395ZM23.6801 14.041L23.7348 14.0664L23.6801 14.041ZM29.2035 14.0156L29.2856 14.0918L29.2035 14.0156ZM23.9535 14.0918L24.0356 14.168L23.9535 14.0918ZM24.2543 14.1933L24.309 14.2188L24.2543 14.1933ZM29.4496 14.168L29.5317 14.2441L29.4496 14.168ZM24.5004 14.2695L24.5551 14.2949L24.5004 14.2695ZM29.5317 14.2441L29.6137 14.3203L29.5317 14.2441ZM24.7465 14.3457L24.8012 14.3711L24.7465 14.3457ZM29.6137 14.3203L29.6957 14.3965L29.6137 14.3203ZM24.9379 14.3965L25.0199 14.4727L24.9379 14.3965ZM29.6957 14.3965L29.7778 14.4727L29.6957 14.3965ZM25.184 14.4727L25.266 14.5488L25.184 14.4727ZM25.3481 14.5488L25.4301 14.625L25.3481 14.5488ZM25.5121 14.625L25.5942 14.7012L25.5121 14.625ZM30.0238 14.625L30.1059 14.7012L30.0238 14.625ZM25.7309 14.7265L25.7855 14.752L25.7309 14.7265ZM30.1059 14.7012L30.1879 14.7773L30.1059 14.7012ZM25.9223 14.7773L26.0043 14.8535L25.9223 14.7773ZM30.1879 14.7773L30.2699 14.8535L30.1879 14.7773ZM26.0043 14.8535L26.0863 14.9297L26.0043 14.8535ZM30.2699 14.8535L30.352 14.9297L30.2699 14.8535ZM26.1684 14.9297L26.2504 15.0059L26.1684 14.9297ZM30.352 14.9297L30.434 15.0059L30.352 14.9297ZM26.3324 15.0059L26.4145 15.082L26.3324 15.0059ZM30.434 15.0059L30.516 15.082L30.434 15.0059ZM26.4965 15.082L26.5785 15.1582L26.4965 15.082ZM30.516 15.082L30.5981 15.1582L30.516 15.082ZM26.6606 15.1582L26.7426 15.2344L26.6606 15.1582ZM30.5981 15.1582L30.6801 15.2344L30.5981 15.1582ZM26.7426 15.2344L26.8246 15.3105L26.7426 15.2344ZM30.6801 15.2344L30.7621 15.3105L30.6801 15.2344ZM26.9067 15.3105L26.9887 15.3867L26.9067 15.3105ZM30.7621 15.3105L30.8442 15.3867L30.7621 15.3105ZM30.8442 15.3867L30.9262 15.4629L30.8442 15.3867ZM27.1528 15.4629L27.2348 15.5391L27.1528 15.4629ZM30.9262 15.4629L31.0082 15.5391L30.9262 15.4629ZM27.2348 15.5391L27.3168 15.6152L27.2348 15.5391ZM27.3988 15.6152L27.4809 15.6914L27.3988 15.6152ZM27.4809 15.6914L27.5629 15.7676L27.4809 15.6914ZM27.727 15.8438L27.809 15.9199L27.727 15.8438ZM31.2543 15.8438L31.3363 15.9199L31.2543 15.8438ZM27.809 15.9199L27.891 15.9961L27.809 15.9199ZM31.3363 15.9199L31.4184 15.9961L31.3363 15.9199ZM15.8324 21.0234C17.019 19.0896 19.2266 18.314 21.4926 18.3574V18.2812H21.0004V16.0723H21.7387C21.3299 15.9131 20.8578 16.0653 20.4262 16.072C18.4751 16.1024 16.4733 16.9399 15.0942 18.2054C14.7376 18.5325 13.7402 19.2668 13.7909 19.7968C13.8343 20.2499 15.4074 20.8985 15.8324 21.0234ZM31.4184 15.9961L31.5004 16.0723L31.4184 15.9961Z" fill="#71DDFF"/>
<path d="M21 16.0723V18.2812C23.06 18.3634 25.1379 19.3074 26.168 21.0234C26.593 20.8985 28.1661 20.2499 28.2095 19.7968C28.2691 19.1729 26.9438 18.2029 26.4961 17.8471C24.9574 16.6242 22.9951 16.0723 21 16.0723Z" fill="#174AFF"/>
<path d="M22.1484 16.0723V16.1484H22.3945L22.1484 16.0723ZM22.6953 16.1738L22.75 16.1992L22.6953 16.1738ZM28.1367 16.1484L28.2188 16.2246L28.1367 16.1484ZM23.1055 16.25L23.1601 16.2754L23.1055 16.25ZM28.2188 16.2246L28.3008 16.3008L28.2188 16.2246ZM31.582 16.2246L31.6641 16.3008L31.582 16.2246ZM23.3789 16.3008L23.4609 16.377L23.3789 16.3008ZM28.3008 16.3008L28.3828 16.377L28.3008 16.3008ZM31.6641 16.3008L31.7461 16.377L31.6641 16.3008ZM23.6797 16.4023L23.7343 16.4278L23.6797 16.4023ZM28.3828 16.377L28.4648 16.4531L28.3828 16.377ZM31.7461 16.377L31.8281 16.4531L31.7461 16.377ZM23.8711 16.4531L23.9531 16.5293L23.8711 16.4531ZM28.4648 16.4531L28.5469 16.5293L28.4648 16.4531ZM24.1172 16.5293L24.1992 16.6055L24.1172 16.5293ZM31.8281 16.5293L31.9102 16.6055L31.8281 16.5293ZM24.2812 16.6055L24.3633 16.6816L24.2812 16.6055ZM31.9102 16.6055L31.9922 16.6816L31.9102 16.6055ZM24.5273 16.6816L24.6094 16.7578L24.5273 16.6816ZM24.6914 16.7578L24.7734 16.834L24.6914 16.7578ZM24.8555 16.834L24.9375 16.9102L24.8555 16.834ZM28.875 16.834L28.957 16.9102L28.875 16.834ZM32.0742 16.834L32.1562 16.9102L32.0742 16.834ZM25.0195 16.9102L25.1016 16.9863L25.0195 16.9102ZM28.957 16.9102L29.0391 16.9863L28.957 16.9102ZM32.1562 16.9102L32.2383 16.9863L32.1562 16.9102ZM25.1836 16.9863L25.2656 17.0625L25.1836 16.9863ZM29.0391 16.9863L29.1211 17.0625L29.0391 16.9863ZM25.2656 17.0625L25.3477 17.1387L25.2656 17.0625ZM29.1211 17.0625L29.2031 17.1387L29.1211 17.0625ZM32.2383 17.0625L32.3203 17.1387L32.2383 17.0625ZM25.4297 17.1387L25.5117 17.2148L25.4297 17.1387ZM29.2031 17.1387L29.2852 17.2148L29.2031 17.1387ZM25.5938 17.2148L25.6758 17.291L25.5938 17.2148ZM29.2852 17.2148L29.3672 17.291L29.2852 17.2148ZM25.6758 17.291L25.7578 17.3672L25.6758 17.291ZM29.3672 17.291L29.4492 17.3672L29.3672 17.291ZM32.4023 17.291L32.4844 17.3672L32.4023 17.291ZM25.8398 17.3672L25.9219 17.4434L25.8398 17.3672ZM25.9219 17.4434L26.0039 17.5195L25.9219 17.4434ZM32.4844 17.4434L32.5664 17.5195L32.4844 17.4434ZM29.5312 17.5195L29.6133 17.5957L29.5312 17.5195ZM32.4023 17.5195L32.4844 17.5957L32.4023 17.5195ZM26.168 17.5957L26.25 17.6719L26.168 17.5957ZM29.6133 17.5957L29.6953 17.6719L29.6133 17.5957ZM32.2383 17.5957L32.3203 17.6719L32.2383 17.5957ZM26.25 17.6719L26.332 17.748L26.25 17.6719ZM29.6953 17.6719L29.7773 17.748L29.6953 17.6719ZM32.1562 17.6719L32.2383 17.748L32.1562 17.6719ZM31.9922 17.748L32.0742 17.8242L31.9922 17.748ZM26.4961 17.8242L26.5781 17.9004L26.4961 17.8242ZM31.8281 17.8242L31.9102 17.9004L31.8281 17.8242ZM26.5781 17.9004L26.6602 17.9766L26.5781 17.9004ZM29.8594 17.9004L29.9414 17.9766L29.8594 17.9004ZM31.7461 17.9004L31.8281 17.9766L31.7461 17.9004ZM26.6602 17.9766L26.7422 18.0527L26.6602 17.9766ZM29.9414 17.9766L30.0234 18.0527L29.9414 17.9766ZM31.582 17.9766L31.6641 18.0527L31.582 17.9766ZM26.7422 18.0527L26.8242 18.1289L26.7422 18.0527ZM26.8242 18.1289L26.9062 18.2051L26.8242 18.1289ZM30.0234 18.1289L30.1055 18.2051L30.0234 18.1289ZM31.3359 18.1289L31.418 18.2051L31.3359 18.1289ZM26.9062 18.2051L26.9883 18.2812L26.9062 18.2051ZM30.1055 18.2051L30.1875 18.2812L30.1055 18.2051ZM31.1719 18.2051L31.2539 18.2812L31.1719 18.2051ZM26.9883 18.2812L27.0703 18.3574L26.9883 18.2812ZM21.9023 18.3574V18.4336H22.1484L21.9023 18.3574ZM27.0703 18.3574L27.1523 18.4336L27.0703 18.3574ZM30.1875 18.3574L30.2695 18.4336L30.1875 18.3574ZM30.9258 18.3574L31.0078 18.4336L30.9258 18.3574ZM22.3672 18.459L22.4218 18.4844L22.3672 18.459ZM27.1523 18.4336L27.2344 18.5098L27.1523 18.4336ZM30.2695 18.4336L30.3516 18.5098L30.2695 18.4336ZM30.7617 18.4336L30.8438 18.5098L30.7617 18.4336ZM22.6953 18.5351L22.75 18.5606L22.6953 18.5351ZM27.2344 18.5098L27.3164 18.5859L27.2344 18.5098ZM30.6797 18.5098L30.7617 18.5859L30.6797 18.5098ZM22.9688 18.5859L23.0508 18.6621L22.9688 18.5859ZM27.3164 18.5859L27.3984 18.6621L27.3164 18.5859ZM30.3516 18.5859L30.4336 18.6621L30.3516 18.5859ZM30.5156 18.5859L30.5977 18.6621L30.5156 18.5859ZM23.1875 18.6875L23.2422 18.7129L23.1875 18.6875ZM27.3984 18.6621L27.4805 18.7383L27.3984 18.6621ZM23.3789 18.7383L23.4609 18.8145L23.3789 18.7383ZM27.4805 18.7383L27.5625 18.8145L27.4805 18.7383ZM23.543 18.8145L23.625 18.8906L23.543 18.8145ZM23.707 18.8906L23.7891 18.9668L23.707 18.8906ZM23.8711 18.9668L23.9531 19.043L23.8711 18.9668ZM24.0352 19.043L24.1172 19.1191L24.0352 19.043ZM27.7266 19.043L27.8086 19.1191L27.7266 19.043ZM24.1992 19.1191L24.2812 19.1953L24.1992 19.1191ZM27.8086 19.1191L27.8906 19.1953L27.8086 19.1191ZM24.2812 19.1953L24.3633 19.2715L24.2812 19.1953ZM24.4453 19.2715L24.5273 19.3477L24.4453 19.2715ZM24.5273 19.3477L24.6094 19.4238L24.5273 19.3477ZM27.9727 19.3477L28.0547 19.4238L27.9727 19.3477ZM28.0547 19.4238L28.1367 19.5L28.0547 19.4238ZM24.7734 19.5L24.8555 19.5762L24.7734 19.5ZM24.8555 19.5762L24.9375 19.6523L24.8555 19.5762ZM28.1367 19.5762L28.2188 19.6523L28.1367 19.5762ZM24.9375 19.6523L25.0195 19.7285L24.9375 19.6523ZM28.2188 19.6523L28.3008 19.7285L28.2188 19.6523ZM25.0195 19.7285L25.1016 19.8047L25.0195 19.7285ZM25.1016 19.8047L25.1836 19.8809L25.1016 19.8047ZM28.3008 19.8047L28.3828 19.8809L28.3008 19.8047ZM28.2188 19.8809L28.3008 19.957L28.2188 19.8809ZM28.1367 19.957L28.2188 20.0332L28.1367 19.957ZM27.9727 20.0332L28.0547 20.1094L27.9727 20.0332ZM25.4297 20.1094L25.5117 20.1855L25.4297 20.1094ZM27.8086 20.1094L27.8906 20.1855L27.8086 20.1094ZM25.5117 20.1855L25.5938 20.2617L25.5117 20.1855ZM27.7266 20.1855L27.8086 20.2617L27.7266 20.1855ZM25.5938 20.2617L25.6758 20.3379L25.5938 20.2617ZM27.5625 20.2617L27.6445 20.3379L27.5625 20.2617ZM25.6758 20.3379L25.7578 20.4141L25.6758 20.3379ZM27.3984 20.3379L27.4805 20.4141L27.3984 20.3379ZM25.7578 20.4141L25.8398 20.4902L25.7578 20.4141ZM27.3164 20.4141L27.3984 20.4902L27.3164 20.4141ZM27.1523 20.4902L27.2344 20.5664L27.1523 20.4902Z" fill="#71DDFF"/>
<path d="M25.8398 20.5664L25.9219 20.6426L25.8398 20.5664ZM26.9883 20.5664L27.0703 20.6426L26.9883 20.5664Z" fill="#71DDFF"/>
<path d="M20.9998 22.9278V20.7188H21.41C20.6171 20.4314 19.2337 20.9594 18.6209 21.4294C18.412 21.5896 17.9196 21.9305 18.0025 22.2281C18.0888 22.5377 18.7607 22.7868 19.0311 22.9424C19.2525 23.0698 19.5078 23.2757 19.7693 23.32C20.1468 23.3842 20.6019 22.9834 20.9998 22.9278ZM25.9217 20.6426L26.0037 20.7188L25.9217 20.6426ZM26.9061 20.6426L26.9881 20.7188L26.9061 20.6426Z" fill="#71DDFF"/>
<path d="M21 20.7188V22.9277C21.4161 22.9676 21.8398 23.3864 22.2305 23.32C22.492 23.2757 22.7473 23.0698 22.9688 22.9424C23.2391 22.7868 23.911 22.5377 23.9973 22.2281C24.0744 21.9512 23.6514 21.6503 23.4609 21.4946C22.7807 20.9388 21.8884 20.721 21 20.7188Z" fill="#174AFF"/>
<path d="M21.6562 20.7188V20.7949H21.9023L21.6562 20.7188ZM26.7422 20.7188L26.8242 20.7949L26.7422 20.7188ZM22.1211 20.8203L22.1758 20.8457L22.1211 20.8203ZM26.5781 20.7949L26.6602 20.8711L26.5781 20.7949ZM22.3125 20.8711L22.3945 20.9473L22.3125 20.8711ZM26.0859 20.8711L26.168 20.9473L26.0859 20.8711ZM26.4961 20.8711L26.5781 20.9473L26.4961 20.8711ZM22.5586 20.9473L22.6406 21.0234L22.5586 20.9473ZM26.332 20.9473L26.4141 21.0234L26.332 20.9473ZM22.7227 21.0234L22.8047 21.0996L22.7227 21.0234ZM22.8867 21.0996L22.9688 21.1758L22.8867 21.0996ZM23.1328 21.252L23.2148 21.3281L23.1328 21.252ZM23.3789 21.4043L23.4609 21.4805L23.3789 21.4043ZM23.4609 21.4805L23.543 21.5566L23.4609 21.4805ZM23.543 21.5566L23.625 21.6328L23.543 21.5566ZM23.625 21.6328L23.707 21.709L23.625 21.6328ZM23.707 21.709L23.7891 21.7852L23.707 21.709ZM23.7891 21.7852L23.8711 21.8613L23.7891 21.7852ZM23.8711 21.8613L23.9531 21.9375L23.8711 21.8613ZM24.0352 22.0898L24.1172 22.166L24.0352 22.0898ZM24.0352 22.2422L24.1172 22.3184L24.0352 22.2422ZM23.9531 22.3184L24.0352 22.3945L23.9531 22.3184ZM23.7891 22.3945L23.8711 22.4707L23.7891 22.3945ZM23.543 22.5469L23.625 22.623L23.543 22.5469ZM23.3789 22.623L23.4609 22.6992L23.3789 22.623ZM23.2969 22.6992L23.3789 22.7754L23.2969 22.6992ZM23.1328 22.7754L23.2148 22.8516L23.1328 22.7754ZM21.1641 22.9277V23.0039H21.4102L21.1641 22.9277ZM22.8867 22.9277L22.9688 23.0039L22.8867 22.9277ZM21.4922 23.0039L21.5742 23.0801L21.4922 23.0039ZM22.7227 23.0039L22.8047 23.0801L22.7227 23.0039ZM21.6562 23.0801L21.7383 23.1562L21.6562 23.0801ZM22.6406 23.0801L22.7227 23.1562L22.6406 23.0801ZM21.7383 23.1562L21.8203 23.2324L21.7383 23.1562ZM22.4766 23.1562L22.5586 23.2324L22.4766 23.1562ZM22.2305 23.3086L22.3125 23.3848L22.2305 23.3086ZM22.0391 23.4101L22.0937 23.4356L22.0391 23.4101Z" fill="#71DDFF"/>
<path d="M12.3867 27.498V34.4297H9.76172C9.93037 35.2374 9.93037 35.9071 9.76172 36.7148H14.8477V27.498H12.3867Z" fill="#F4F7FF"/>
<path d="M19.7695 27.498V32.2969H22.2305V27.498H19.7695Z" fill="#F4F7FF"/>
<path d="M27.1523 27.498V36.7148H32.2383V34.4297H29.6133V27.498H27.1523Z" fill="#F4F7FF"/>
<path d="M5.4145 32.1801C3.03019 32.595 1.83862 35.2245 2.90217 37.1718C3.67657 38.5898 5.40171 39.252 7.05512 38.9643C9.43173 38.5508 10.6174 35.9229 9.56717 33.9726C8.7996 32.547 7.06523 31.8929 5.4145 32.1801ZM21.0004 38.9999V32.1445C17.1751 32.1468 15.8145 37.1494 19.3598 38.7036C19.9004 38.9406 20.4109 38.9999 21.0004 38.9999Z" fill="#71DDFF"/>
<path d="M21 32.1446V39C21.5505 38.999 22.057 38.9626 22.5586 38.7312C26.0319 37.1293 24.9526 32.1547 21 32.1446ZM34.9453 32.1802C32.5829 32.5912 31.3936 35.2238 32.4333 37.1719C33.1926 38.5946 34.9434 39.2502 36.5859 38.9644C39 38.5444 40.1964 35.8442 39.0551 33.8965C38.2507 32.5239 36.5741 31.8968 34.9453 32.1802Z" fill="#174AFF"/>
<path d="M22.4766 32.373L22.5586 32.4492L22.4766 32.373ZM22.6406 32.4492L22.7227 32.5254L22.6406 32.4492ZM22.8047 32.5254L22.8867 32.6016L22.8047 32.5254ZM23.0508 32.6777L23.1328 32.7539L23.0508 32.6777ZM23.2969 32.8301L23.3789 32.9062L23.2969 32.8301ZM23.4609 32.9824L23.543 33.0586L23.4609 32.9824ZM23.7891 33.2871L23.8711 33.3633L23.7891 33.2871ZM23.8711 33.3633L23.9531 33.4395L23.8711 33.3633ZM24.1992 33.8203L24.2812 33.8965L24.1992 33.8203ZM24.3633 34.125L24.4453 34.2012L24.3633 34.125ZM24.4453 34.3535L24.5273 34.4297L24.4453 34.3535ZM24.5547 34.5567L24.5821 34.6074L24.5547 34.5567ZM24.6094 34.8867L24.6914 34.9629L24.6094 34.8867ZM24.6094 36.1816L24.6914 36.2578L24.6094 36.1816ZM24.5273 36.5625L24.6094 36.6387L24.5273 36.5625ZM24.4453 36.7148L24.5273 36.791L24.4453 36.7148ZM24.3633 36.9434L24.4453 37.0195L24.3633 36.9434ZM24.2812 37.0957L24.3633 37.1719L24.2812 37.0957ZM24.1992 37.248L24.2812 37.3242L24.1992 37.248ZM24.0352 37.4766L24.1172 37.5527L24.0352 37.4766ZM23.707 37.8574L23.7891 37.9336L23.707 37.8574ZM23.625 37.9336L23.707 38.0098L23.625 37.9336ZM23.4609 38.0859L23.543 38.1621L23.4609 38.0859ZM23.2969 38.2383L23.3789 38.3145L23.2969 38.2383ZM23.0508 38.3906L23.1328 38.4668L23.0508 38.3906ZM22.8047 38.543L22.8867 38.6191L22.8047 38.543ZM22.4766 38.6953L22.5586 38.7715L22.4766 38.6953ZM21.6562 38.9238L21.7383 39L21.6562 38.9238Z" fill="#71DDFF"/>
</g>
<path d="M58.18 14.04V28H55.38V14.04H58.18ZM67.4264 28.14C66.1197 28.14 64.9197 27.8333 63.8264 27.22C62.7331 26.6067 61.8664 25.76 61.2264 24.68C60.5864 23.5867 60.2664 22.3533 60.2664 20.98C60.2664 19.62 60.5864 18.4 61.2264 17.32C61.8664 16.2267 62.7331 15.3733 63.8264 14.76C64.9197 14.1467 66.1197 13.84 67.4264 13.84C68.7464 13.84 69.9464 14.1467 71.0264 14.76C72.1197 15.3733 72.9797 16.2267 73.6064 17.32C74.2464 18.4 74.5664 19.62 74.5664 20.98C74.5664 22.3533 74.2464 23.5867 73.6064 24.68C72.9797 25.76 72.1197 26.6067 71.0264 27.22C69.9331 27.8333 68.7331 28.14 67.4264 28.14ZM67.4264 25.64C68.2664 25.64 69.0064 25.4533 69.6464 25.08C70.2864 24.6933 70.7864 24.1467 71.1464 23.44C71.5064 22.7333 71.6864 21.9133 71.6864 20.98C71.6864 20.0467 71.5064 19.2333 71.1464 18.54C70.7864 17.8333 70.2864 17.2933 69.6464 16.92C69.0064 16.5467 68.2664 16.36 67.4264 16.36C66.5864 16.36 65.8397 16.5467 65.1864 16.92C64.5464 17.2933 64.0464 17.8333 63.6864 18.54C63.3264 19.2333 63.1464 20.0467 63.1464 20.98C63.1464 21.9133 63.3264 22.7333 63.6864 23.44C64.0464 24.1467 64.5464 24.6933 65.1864 25.08C65.8397 25.4533 66.5864 25.64 67.4264 25.64ZM86.1495 14.04V16.3H82.4295V28H79.6295V16.3H75.9095V14.04H86.1495Z" fill="#71DDFF"/>
<path d="M97.8381 14.04C99.3048 14.04 100.591 14.3267 101.698 14.9C102.818 15.4733 103.678 16.2933 104.278 17.36C104.891 18.4133 105.198 19.64 105.198 21.04C105.198 22.44 104.891 23.6667 104.278 24.72C103.678 25.76 102.818 26.5667 101.698 27.14C100.591 27.7133 99.3048 28 97.8381 28H92.9581V14.04H97.8381ZM97.7381 25.62C99.2048 25.62 100.338 25.22 101.138 24.42C101.938 23.62 102.338 22.4933 102.338 21.04C102.338 19.5867 101.938 18.4533 101.138 17.64C100.338 16.8133 99.2048 16.4 97.7381 16.4H95.7581V25.62H97.7381ZM106.574 22.42C106.574 21.3 106.794 20.3067 107.234 19.44C107.687 18.5733 108.294 17.9067 109.054 17.44C109.827 16.9733 110.687 16.74 111.634 16.74C112.461 16.74 113.181 16.9067 113.794 17.24C114.421 17.5733 114.921 17.9933 115.294 18.5V16.92H118.114V28H115.294V26.38C114.934 26.9 114.434 27.3333 113.794 27.68C113.167 28.0133 112.441 28.18 111.614 28.18C110.681 28.18 109.827 27.94 109.054 27.46C108.294 26.98 107.687 26.3067 107.234 25.44C106.794 24.56 106.574 23.5533 106.574 22.42ZM115.294 22.46C115.294 21.78 115.161 21.2 114.894 20.72C114.627 20.2267 114.267 19.8533 113.814 19.6C113.361 19.3333 112.874 19.2 112.354 19.2C111.834 19.2 111.354 19.3267 110.914 19.58C110.474 19.8333 110.114 20.2067 109.834 20.7C109.567 21.18 109.434 21.7533 109.434 22.42C109.434 23.0867 109.567 23.6733 109.834 24.18C110.114 24.6733 110.474 25.0533 110.914 25.32C111.367 25.5867 111.847 25.72 112.354 25.72C112.874 25.72 113.361 25.5933 113.814 25.34C114.267 25.0733 114.627 24.7 114.894 24.22C115.161 23.7267 115.294 23.14 115.294 22.46ZM125.089 28.18C124.182 28.18 123.369 28.02 122.649 27.7C121.929 27.3667 121.355 26.92 120.929 26.36C120.515 25.8 120.289 25.18 120.249 24.5H123.069C123.122 24.9267 123.329 25.28 123.689 25.56C124.062 25.84 124.522 25.98 125.069 25.98C125.602 25.98 126.015 25.8733 126.309 25.66C126.615 25.4467 126.769 25.1733 126.769 24.84C126.769 24.48 126.582 24.2133 126.209 24.04C125.849 23.8533 125.269 23.6533 124.469 23.44C123.642 23.24 122.962 23.0333 122.429 22.82C121.909 22.6067 121.455 22.28 121.069 21.84C120.695 21.4 120.509 20.8067 120.509 20.06C120.509 19.4467 120.682 18.8867 121.029 18.38C121.389 17.8733 121.895 17.4733 122.549 17.18C123.215 16.8867 123.995 16.74 124.889 16.74C126.209 16.74 127.262 17.0733 128.049 17.74C128.835 18.3933 129.269 19.28 129.349 20.4H126.669C126.629 19.96 126.442 19.6133 126.109 19.36C125.789 19.0933 125.355 18.96 124.809 18.96C124.302 18.96 123.909 19.0533 123.629 19.24C123.362 19.4267 123.229 19.6867 123.229 20.02C123.229 20.3933 123.415 20.68 123.789 20.88C124.162 21.0667 124.742 21.26 125.529 21.46C126.329 21.66 126.989 21.8667 127.509 22.08C128.029 22.2933 128.475 22.6267 128.849 23.08C129.235 23.52 129.435 24.1067 129.449 24.84C129.449 25.48 129.269 26.0533 128.909 26.56C128.562 27.0667 128.055 27.4667 127.389 27.76C126.735 28.04 125.969 28.18 125.089 28.18ZM137.987 16.76C138.827 16.76 139.574 16.9467 140.227 17.32C140.881 17.68 141.387 18.22 141.747 18.94C142.121 19.6467 142.307 20.5 142.307 21.5V28H139.507V21.88C139.507 21 139.287 20.3267 138.847 19.86C138.407 19.38 137.807 19.14 137.047 19.14C136.274 19.14 135.661 19.38 135.207 19.86C134.767 20.3267 134.547 21 134.547 21.88V28H131.747V13.2H134.547V18.3C134.907 17.82 135.387 17.4467 135.987 17.18C136.587 16.9 137.254 16.76 137.987 16.76ZM147.77 18.54C148.13 18.0067 148.623 17.5733 149.25 17.24C149.89 16.9067 150.617 16.74 151.43 16.74C152.377 16.74 153.23 16.9733 153.99 17.44C154.763 17.9067 155.37 18.5733 155.81 19.44C156.263 20.2933 156.49 21.2867 156.49 22.42C156.49 23.5533 156.263 24.56 155.81 25.44C155.37 26.3067 154.763 26.98 153.99 27.46C153.23 27.94 152.377 28.18 151.43 28.18C150.603 28.18 149.877 28.02 149.25 27.7C148.637 27.3667 148.143 26.94 147.77 26.42V28H144.97V13.2H147.77V18.54ZM153.63 22.42C153.63 21.7533 153.49 21.18 153.21 20.7C152.943 20.2067 152.583 19.8333 152.13 19.58C151.69 19.3267 151.21 19.2 150.69 19.2C150.183 19.2 149.703 19.3333 149.25 19.6C148.81 19.8533 148.45 20.2267 148.17 20.72C147.903 21.2133 147.77 21.7933 147.77 22.46C147.77 23.1267 147.903 23.7067 148.17 24.2C148.45 24.6933 148.81 25.0733 149.25 25.34C149.703 25.5933 150.183 25.72 150.69 25.72C151.21 25.72 151.69 25.5867 152.13 25.32C152.583 25.0533 152.943 24.6733 153.21 24.18C153.49 23.6867 153.63 23.1 153.63 22.42ZM163.445 28.18C162.378 28.18 161.418 27.9467 160.565 27.48C159.711 27 159.038 26.3267 158.545 25.46C158.065 24.5933 157.825 23.5933 157.825 22.46C157.825 21.3267 158.071 20.3267 158.565 19.46C159.071 18.5933 159.758 17.9267 160.625 17.46C161.491 16.98 162.458 16.74 163.525 16.74C164.591 16.74 165.558 16.98 166.425 17.46C167.291 17.9267 167.971 18.5933 168.465 19.46C168.971 20.3267 169.225 21.3267 169.225 22.46C169.225 23.5933 168.965 24.5933 168.445 25.46C167.938 26.3267 167.245 27 166.365 27.48C165.498 27.9467 164.525 28.18 163.445 28.18ZM163.445 25.74C163.951 25.74 164.425 25.62 164.865 25.38C165.318 25.1267 165.678 24.7533 165.945 24.26C166.211 23.7667 166.345 23.1667 166.345 22.46C166.345 21.4067 166.065 20.6 165.505 20.04C164.958 19.4667 164.285 19.18 163.485 19.18C162.685 19.18 162.011 19.4667 161.465 20.04C160.931 20.6 160.665 21.4067 160.665 22.46C160.665 23.5133 160.925 24.3267 161.445 24.9C161.978 25.46 162.645 25.74 163.445 25.74ZM170.558 22.42C170.558 21.3 170.778 20.3067 171.218 19.44C171.672 18.5733 172.278 17.9067 173.038 17.44C173.812 16.9733 174.672 16.74 175.618 16.74C176.445 16.74 177.165 16.9067 177.778 17.24C178.405 17.5733 178.905 17.9933 179.278 18.5V16.92H182.098V28H179.278V26.38C178.918 26.9 178.418 27.3333 177.778 27.68C177.152 28.0133 176.425 28.18 175.598 28.18C174.665 28.18 173.812 27.94 173.038 27.46C172.278 26.98 171.672 26.3067 171.218 25.44C170.778 24.56 170.558 23.5533 170.558 22.42ZM179.278 22.46C179.278 21.78 179.145 21.2 178.878 20.72C178.612 20.2267 178.252 19.8533 177.798 19.6C177.345 19.3333 176.858 19.2 176.338 19.2C175.818 19.2 175.338 19.3267 174.898 19.58C174.458 19.8333 174.098 20.2067 173.818 20.7C173.552 21.18 173.418 21.7533 173.418 22.42C173.418 23.0867 173.552 23.6733 173.818 24.18C174.098 24.6733 174.458 25.0533 174.898 25.32C175.352 25.5867 175.832 25.72 176.338 25.72C176.858 25.72 177.345 25.5933 177.798 25.34C178.252 25.0733 178.612 24.7 178.878 24.22C179.145 23.7267 179.278 23.14 179.278 22.46ZM187.633 18.64C187.993 18.0533 188.46 17.5933 189.033 17.26C189.62 16.9267 190.286 16.76 191.033 16.76V19.7H190.293C189.413 19.7 188.746 19.9067 188.293 20.32C187.853 20.7333 187.633 21.4533 187.633 22.48V28H184.833V16.92H187.633V18.64ZM192.199 22.42C192.199 21.3 192.419 20.3067 192.859 19.44C193.312 18.5733 193.926 17.9067 194.699 17.44C195.472 16.9733 196.332 16.74 197.279 16.74C197.999 16.74 198.686 16.9 199.339 17.22C199.992 17.5267 200.512 17.94 200.899 18.46V13.2H203.739V28H200.899V26.36C200.552 26.9067 200.066 27.3467 199.439 27.68C198.812 28.0133 198.086 28.18 197.259 28.18C196.326 28.18 195.472 27.94 194.699 27.46C193.926 26.98 193.312 26.3067 192.859 25.44C192.419 24.56 192.199 23.5533 192.199 22.42ZM200.919 22.46C200.919 21.78 200.786 21.2 200.519 20.72C200.252 20.2267 199.892 19.8533 199.439 19.6C198.986 19.3333 198.499 19.2 197.979 19.2C197.459 19.2 196.979 19.3267 196.539 19.58C196.099 19.8333 195.739 20.2067 195.459 20.7C195.192 21.18 195.059 21.7533 195.059 22.42C195.059 23.0867 195.192 23.6733 195.459 24.18C195.739 24.6733 196.099 25.0533 196.539 25.32C196.992 25.5867 197.472 25.72 197.979 25.72C198.499 25.72 198.986 25.5933 199.439 25.34C199.892 25.0733 200.252 24.7 200.519 24.22C200.786 23.7267 200.919 23.14 200.919 22.46Z" fill="#174AFF"/>
<defs>
<clipPath id="clip0_783_698">
<rect width="42" height="39" fill="white"/>
</clipPath>
</defs>
</svg>
