<svg width="411" height="78" viewBox="0 0 411 78" fill="none" xmlns="http://www.w3.org/2000/svg">
<g clip-path="url(#clip0_1036_466)">
<path d="M23.8907 13.8633C19.0617 13.028 13.7746 16.4921 11.734 20.1094C11.0103 21.3924 11.0828 23.1894 10.308 24.3425C9.83917 25.0401 8.47722 25.4118 7.7345 25.8597C6.29982 26.7249 5.0611 27.753 3.96956 28.9453C-1.23526 34.6305 -1.35782 42.9358 3.63191 48.75C8.78601 54.7557 15.9671 54.9961 23.7189 54.9961H37.1251H60.1564C64.0007 54.9961 68.0179 55.2942 71.8439 54.9702C84.1233 53.9303 91.4954 41.9323 86.4001 32.1445C85.2417 29.9192 83.4313 27.9677 81.297 26.4261C80.3412 25.7357 78.7215 25.3026 77.9631 24.4679C77.5087 23.9675 77.7192 23.1445 77.6386 22.5469C77.4288 20.9922 77.079 19.4783 76.5835 17.9765C75.2796 14.0257 72.7596 10.449 69.5803 7.47082C59.3489 -2.1134 41.654 -2.36352 30.5939 6.07386C28.0374 8.02407 24.8544 10.904 23.8907 13.8633Z" fill="#E4F0F9"/>
<path d="M19.9375 35.039L24.2344 37.3242C29.287 30.6869 36.5087 27.5525 45.375 27.5742V27.4218H44V23.0039H46.0625C44.2939 22.346 40.7048 23.0116 38.8438 23.339C33.1305 24.3439 28.0204 26.6502 23.8906 30.3164C22.4314 31.6117 20.5779 33.2578 19.9375 35.039Z" fill="#EB1DDC"/>
<path d="M44 23.0039V27.4219C52.2172 27.4822 59.245 31.3856 63.7656 37.3242L68.0625 35.0391C67.3776 33.134 65.3269 31.3892 63.7656 30.0119C58.5002 25.3669 51.3564 23.0039 44 23.0039Z" fill="#4C13F1"/>
<path d="M47.0939 23.0039V23.1562H47.7814L47.0939 23.0039ZM48.297 23.1562V23.3086H48.8126L48.297 23.1562ZM49.3282 23.3086V23.4609H49.8439L49.3282 23.3086ZM50.3022 23.5117L50.4167 23.5626L50.3022 23.5117ZM50.9897 23.664L51.1042 23.7149L50.9897 23.664ZM51.6772 23.8164L51.7917 23.8672L51.6772 23.8164ZM52.2501 23.918L52.422 24.0703L52.2501 23.918ZM52.7657 24.0703L52.9376 24.2227L52.7657 24.0703ZM53.2814 24.2227L53.4532 24.375L53.2814 24.2227ZM53.797 24.375L53.9689 24.5273L53.797 24.375ZM54.2554 24.5781L54.3698 24.629L54.2554 24.5781ZM54.6564 24.6797L54.8282 24.832L54.6564 24.6797ZM55.1147 24.8828L55.2292 24.9336L55.1147 24.8828ZM55.5157 24.9844L55.6876 25.1367L55.5157 24.9844ZM55.8595 25.1367L56.0314 25.2891L55.8595 25.1367ZM56.2032 25.2891L56.3751 25.4414L56.2032 25.2891ZM56.547 25.4414L56.7189 25.5938L56.547 25.4414ZM56.8907 25.5938L57.0626 25.7461L56.8907 25.5938ZM57.2345 25.7461L57.4064 25.8984L57.2345 25.7461ZM57.5782 25.8984L57.7501 26.0508L57.5782 25.8984ZM57.922 26.0508L58.0939 26.2031L57.922 26.0508ZM58.0939 26.2031L58.2657 26.3555L58.0939 26.2031ZM58.4376 26.3555L58.6095 26.5078L58.4376 26.3555ZM58.7814 26.5078L58.9532 26.6602L58.7814 26.5078ZM58.9532 26.6602L59.1251 26.8125L58.9532 26.6602ZM59.297 26.8125L59.4689 26.9648L59.297 26.8125ZM59.8126 27.1172L59.9845 27.2695L59.8126 27.1172ZM59.9845 27.2695L60.1564 27.4219L59.9845 27.2695ZM60.3282 27.4219L60.5001 27.5742L60.3282 27.4219ZM46.4064 27.5742V27.7266H47.0939L46.4064 27.5742ZM60.5001 27.5742L60.672 27.7266L60.5001 27.5742ZM47.7814 27.7266V27.8789H48.297L47.7814 27.7266ZM48.6407 27.8789V28.0312H49.1564L48.6407 27.8789ZM61.0157 27.8789L61.1876 28.0312L61.0157 27.8789ZM49.6147 28.082L49.7292 28.1329L49.6147 28.082ZM61.1876 28.0312L61.3595 28.1836L61.1876 28.0312ZM50.1876 28.1836L50.3595 28.3359L50.1876 28.1836ZM50.8179 28.3867L50.9323 28.4376L50.8179 28.3867ZM61.7032 28.3359L61.8751 28.4883L61.7032 28.3359ZM51.3335 28.539L51.448 28.5899L51.3335 28.539ZM61.8751 28.4883L62.047 28.6406L61.8751 28.4883ZM51.8491 28.6914L51.9636 28.7422L51.8491 28.6914ZM62.047 28.6406L62.2189 28.793L62.047 28.6406ZM52.2501 28.793L52.422 28.9453L52.2501 28.793ZM62.2189 28.793L62.3907 28.9453L62.2189 28.793ZM52.7657 28.9453L52.9376 29.0977L52.7657 28.9453ZM53.1095 29.0977L53.2814 29.25L53.1095 29.0977ZM53.4532 29.25L53.6251 29.4023L53.4532 29.25ZM62.9064 29.25L63.0782 29.4023L62.9064 29.25ZM53.9116 29.4531L54.0261 29.504L53.9116 29.4531ZM63.0782 29.4023L63.2501 29.5547L63.0782 29.4023ZM54.3126 29.5547L54.4845 29.707L54.3126 29.5547ZM63.2501 29.5547L63.422 29.707L63.2501 29.5547ZM54.4845 29.707L54.6564 29.8594L54.4845 29.707ZM63.422 29.707L63.5939 29.8594L63.422 29.707ZM54.8282 29.8594L55.0001 30.0117L54.8282 29.8594ZM63.5939 29.8594L63.7657 30.0117L63.5939 29.8594ZM55.172 30.0117L55.3439 30.1641L55.172 30.0117ZM63.7657 30.0117L63.9376 30.1641L63.7657 30.0117ZM55.5157 30.1641L55.6876 30.3164L55.5157 30.1641ZM63.9376 30.1641L64.1095 30.3164L63.9376 30.1641ZM55.8595 30.3164L56.0314 30.4688L55.8595 30.3164ZM64.1095 30.3164L64.2814 30.4688L64.1095 30.3164ZM56.0314 30.4688L56.2032 30.6211L56.0314 30.4688ZM64.2814 30.4688L64.4532 30.6211L64.2814 30.4688ZM56.3751 30.6211L56.547 30.7734L56.3751 30.6211ZM64.4532 30.6211L64.6251 30.7734L64.4532 30.6211ZM64.6251 30.7734L64.797 30.9258L64.6251 30.7734ZM56.8907 30.9258L57.0626 31.0781L56.8907 30.9258ZM64.797 30.9258L64.9689 31.0781L64.797 30.9258ZM57.0626 31.0781L57.2345 31.2305L57.0626 31.0781ZM57.4064 31.2305L57.5782 31.3828L57.4064 31.2305ZM57.5782 31.3828L57.7501 31.5352L57.5782 31.3828ZM58.0939 31.6875L58.2657 31.8398L58.0939 31.6875ZM65.4845 31.6875L65.6564 31.8398L65.4845 31.6875ZM58.2657 31.8398L58.4376 31.9922L58.2657 31.8398ZM65.6564 31.8398L65.8282 31.9922L65.6564 31.8398ZM33.172 42.0469C35.6582 38.1792 40.2837 36.628 45.0314 36.7148V36.5625H44.0001V32.1445H45.547C44.6905 31.8261 43.7012 32.1307 42.797 32.1441C38.7089 32.2047 34.5147 33.8799 31.6251 36.4108C30.8781 37.0649 28.7883 38.5335 28.8945 39.5935C28.9855 40.4998 32.2815 41.797 33.172 42.0469ZM65.8282 31.9922L66.0001 32.1445L65.8282 31.9922Z" fill="#EB1DDC"/>
<path d="M44 32.1445V36.5625C48.3161 36.7267 52.6699 38.6149 54.8281 42.0469C55.7186 41.797 59.0147 40.4998 59.1056 39.5935C59.2305 38.3458 56.4537 36.4059 55.5156 35.6941C52.2918 33.2484 48.1802 32.1445 44 32.1445Z" fill="#4C13F1"/>
<path d="M46.4062 32.1445V32.2969H46.9219L46.4062 32.1445ZM47.5521 32.3476L47.6666 32.3985L47.5521 32.3476ZM58.9531 32.2969L59.125 32.4492L58.9531 32.2969ZM48.4115 32.4999L48.526 32.5508L48.4115 32.4999ZM59.125 32.4492L59.2969 32.6016L59.125 32.4492ZM66.1719 32.4492L66.3438 32.6016L66.1719 32.4492ZM48.9844 32.6016L49.1562 32.7539L48.9844 32.6016ZM59.2969 32.6016L59.4688 32.7539L59.2969 32.6016ZM66.3438 32.6016L66.5156 32.7539L66.3438 32.6016ZM49.6146 32.8046L49.7291 32.8555L49.6146 32.8046ZM59.4688 32.7539L59.6406 32.9062L59.4688 32.7539ZM66.5156 32.7539L66.6875 32.9062L66.5156 32.7539ZM50.0156 32.9062L50.1875 33.0586L50.0156 32.9062ZM59.6406 32.9062L59.8125 33.0586L59.6406 32.9062ZM50.5312 33.0586L50.7031 33.2109L50.5312 33.0586ZM66.6875 33.0586L66.8594 33.2109L66.6875 33.0586ZM50.875 33.2109L51.0469 33.3633L50.875 33.2109ZM66.8594 33.2109L67.0312 33.3633L66.8594 33.2109ZM51.3906 33.3633L51.5625 33.5156L51.3906 33.3633ZM51.7344 33.5156L51.9062 33.668L51.7344 33.5156ZM52.0781 33.668L52.25 33.8203L52.0781 33.668ZM60.5 33.668L60.6719 33.8203L60.5 33.668ZM67.2031 33.668L67.375 33.8203L67.2031 33.668ZM52.4219 33.8203L52.5938 33.9727L52.4219 33.8203ZM60.6719 33.8203L60.8438 33.9727L60.6719 33.8203ZM67.375 33.8203L67.5469 33.9727L67.375 33.8203ZM52.7656 33.9727L52.9375 34.125L52.7656 33.9727ZM60.8438 33.9727L61.0156 34.125L60.8438 33.9727ZM52.9375 34.125L53.1094 34.2773L52.9375 34.125ZM61.0156 34.125L61.1875 34.2773L61.0156 34.125ZM67.5469 34.125L67.7188 34.2773L67.5469 34.125ZM53.2812 34.2773L53.4531 34.4297L53.2812 34.2773ZM61.1875 34.2773L61.3594 34.4297L61.1875 34.2773ZM53.625 34.4297L53.7969 34.582L53.625 34.4297ZM61.3594 34.4297L61.5312 34.582L61.3594 34.4297ZM53.7969 34.582L53.9688 34.7344L53.7969 34.582ZM61.5312 34.582L61.7031 34.7344L61.5312 34.582ZM67.8906 34.582L68.0625 34.7344L67.8906 34.582ZM54.1406 34.7344L54.3125 34.8867L54.1406 34.7344ZM54.3125 34.8867L54.4844 35.0391L54.3125 34.8867ZM68.0625 34.8867L68.2344 35.0391L68.0625 34.8867ZM61.875 35.0391L62.0469 35.1914L61.875 35.0391ZM67.8906 35.0391L68.0625 35.1914L67.8906 35.0391ZM54.8281 35.1914L55 35.3438L54.8281 35.1914ZM62.0469 35.1914L62.2188 35.3438L62.0469 35.1914ZM67.5469 35.1914L67.7188 35.3438L67.5469 35.1914ZM55 35.3438L55.1719 35.4961L55 35.3438ZM62.2188 35.3438L62.3906 35.4961L62.2188 35.3438ZM67.375 35.3438L67.5469 35.4961L67.375 35.3438ZM67.0312 35.4961L67.2031 35.6484L67.0312 35.4961ZM55.5156 35.6484L55.6875 35.8008L55.5156 35.6484ZM66.6875 35.6484L66.8594 35.8008L66.6875 35.6484ZM55.6875 35.8008L55.8594 35.9531L55.6875 35.8008ZM62.5625 35.8008L62.7344 35.9531L62.5625 35.8008ZM66.5156 35.8008L66.6875 35.9531L66.5156 35.8008ZM55.8594 35.9531L56.0312 36.1055L55.8594 35.9531ZM62.7344 35.9531L62.9062 36.1055L62.7344 35.9531ZM66.1719 35.9531L66.3438 36.1055L66.1719 35.9531ZM56.0312 36.1055L56.2031 36.2578L56.0312 36.1055ZM56.2031 36.2578L56.375 36.4102L56.2031 36.2578ZM62.9062 36.2578L63.0781 36.4102L62.9062 36.2578ZM65.6562 36.2578L65.8281 36.4102L65.6562 36.2578ZM56.375 36.4102L56.5469 36.5625L56.375 36.4102ZM63.0781 36.4102L63.25 36.5625L63.0781 36.4102ZM65.3125 36.4102L65.4844 36.5625L65.3125 36.4102ZM56.5469 36.5625L56.7188 36.7148L56.5469 36.5625ZM45.8906 36.7148V36.8672H46.4062L45.8906 36.7148ZM56.7188 36.7148L56.8906 36.8672L56.7188 36.7148ZM63.25 36.7148L63.4219 36.8672L63.25 36.7148ZM64.7969 36.7148L64.9688 36.8672L64.7969 36.7148ZM46.8646 36.9179L46.9791 36.9688L46.8646 36.9179ZM56.8906 36.8672L57.0625 37.0195L56.8906 36.8672ZM63.4219 36.8672L63.5938 37.0195L63.4219 36.8672ZM64.4531 36.8672L64.625 37.0195L64.4531 36.8672ZM47.5521 37.0703L47.6666 37.1211L47.5521 37.0703ZM57.0625 37.0195L57.2344 37.1719L57.0625 37.0195ZM64.2812 37.0195L64.4531 37.1719L64.2812 37.0195ZM48.125 37.1719L48.2969 37.3242L48.125 37.1719ZM57.2344 37.1719L57.4062 37.3242L57.2344 37.1719ZM63.5938 37.1719L63.7656 37.3242L63.5938 37.1719ZM63.9375 37.1719L64.1094 37.3242L63.9375 37.1719ZM48.5834 37.3749L48.6979 37.4258L48.5834 37.3749ZM57.4062 37.3242L57.5781 37.4766L57.4062 37.3242ZM48.9844 37.4766L49.1562 37.6289L48.9844 37.4766ZM57.5781 37.4766L57.75 37.6289L57.5781 37.4766ZM49.3281 37.6289L49.5 37.7812L49.3281 37.6289ZM49.6719 37.7812L49.8438 37.9336L49.6719 37.7812ZM50.0156 37.9336L50.1875 38.0859L50.0156 37.9336ZM50.3594 38.0859L50.5312 38.2383L50.3594 38.0859ZM58.0938 38.0859L58.2656 38.2383L58.0938 38.0859ZM50.7031 38.2383L50.875 38.3906L50.7031 38.2383ZM58.2656 38.2383L58.4375 38.3906L58.2656 38.2383ZM50.875 38.3906L51.0469 38.543L50.875 38.3906ZM51.2188 38.543L51.3906 38.6953L51.2188 38.543ZM51.3906 38.6953L51.5625 38.8477L51.3906 38.6953ZM58.6094 38.6953L58.7812 38.8477L58.6094 38.6953ZM58.7812 38.8477L58.9531 39L58.7812 38.8477ZM51.9062 39L52.0781 39.1523L51.9062 39ZM52.0781 39.1523L52.25 39.3047L52.0781 39.1523ZM58.9531 39.1523L59.125 39.3047L58.9531 39.1523ZM52.25 39.3047L52.4219 39.457L52.25 39.3047ZM59.125 39.3047L59.2969 39.457L59.125 39.3047ZM52.4219 39.457L52.5938 39.6094L52.4219 39.457ZM52.5938 39.6094L52.7656 39.7617L52.5938 39.6094ZM59.2969 39.6094L59.4688 39.7617L59.2969 39.6094ZM59.125 39.7617L59.2969 39.9141L59.125 39.7617ZM58.9531 39.9141L59.125 40.0664L58.9531 39.9141ZM58.6094 40.0664L58.7812 40.2188L58.6094 40.0664ZM53.2812 40.2188L53.4531 40.3711L53.2812 40.2188ZM58.2656 40.2188L58.4375 40.3711L58.2656 40.2188ZM53.4531 40.3711L53.625 40.5234L53.4531 40.3711ZM58.0938 40.3711L58.2656 40.5234L58.0938 40.3711ZM53.625 40.5234L53.7969 40.6758L53.625 40.5234ZM57.75 40.5234L57.9219 40.6758L57.75 40.5234ZM53.7969 40.6758L53.9688 40.8281L53.7969 40.6758ZM57.4062 40.6758L57.5781 40.8281L57.4062 40.6758ZM53.9688 40.8281L54.1406 40.9805L53.9688 40.8281ZM57.2344 40.8281L57.4062 40.9805L57.2344 40.8281ZM56.8906 40.9805L57.0625 41.1328L56.8906 40.9805Z" fill="#EB1DDC"/>
<path d="M54.1406 41.1328L54.3125 41.2852L54.1406 41.1328ZM56.5469 41.1328L56.7188 41.2852L56.5469 41.1328Z" fill="#EB1DDC"/>
<path d="M44.0001 45.8555V41.4375H44.8594C43.1983 40.8629 40.2996 41.9188 39.0157 42.8588C38.5779 43.1791 37.5463 43.861 37.7199 44.4562C37.9007 45.0754 39.3086 45.5737 39.8751 45.8848C40.339 46.1396 40.874 46.5514 41.4219 46.6401C42.2129 46.7684 43.1663 45.9667 44.0001 45.8555ZM54.3126 41.2852L54.4844 41.4375L54.3126 41.2852ZM56.3751 41.2852L56.5469 41.4375L56.3751 41.2852Z" fill="#EB1DDC"/>
<path d="M44 41.4375V45.8555C44.8719 45.9351 45.7595 46.7727 46.5781 46.64C47.1261 46.5514 47.6611 46.1396 48.125 45.8847C48.6915 45.5736 50.0993 45.0753 50.2801 44.4562C50.4417 43.9024 49.5553 43.3005 49.1561 42.9891C47.7309 41.8776 45.8614 41.4421 44 41.4375Z" fill="#4C13F1"/>
<path d="M45.375 41.4375V41.5898H45.8906L45.375 41.4375ZM56.0312 41.4375L56.2031 41.5898L56.0312 41.4375ZM46.349 41.6406L46.4635 41.6915L46.349 41.6406ZM55.6875 41.5898L55.8594 41.7422L55.6875 41.5898ZM46.75 41.7422L46.9219 41.8945L46.75 41.7422ZM54.6562 41.7422L54.8281 41.8945L54.6562 41.7422ZM55.5156 41.7422L55.6875 41.8945L55.5156 41.7422ZM47.2656 41.8945L47.4375 42.0469L47.2656 41.8945ZM55.1719 41.8945L55.3438 42.0469L55.1719 41.8945ZM47.6094 42.0469L47.7812 42.1992L47.6094 42.0469ZM47.9531 42.1992L48.125 42.3516L47.9531 42.1992ZM48.4688 42.5039L48.6406 42.6562L48.4688 42.5039ZM48.9844 42.8086L49.1562 42.9609L48.9844 42.8086ZM49.1562 42.9609L49.3281 43.1133L49.1562 42.9609ZM49.3281 43.1133L49.5 43.2656L49.3281 43.1133ZM49.5 43.2656L49.6719 43.418L49.5 43.2656ZM49.6719 43.418L49.8438 43.5703L49.6719 43.418ZM49.8438 43.5703L50.0156 43.7227L49.8438 43.5703ZM50.0156 43.7227L50.1875 43.875L50.0156 43.7227ZM50.3594 44.1797L50.5312 44.332L50.3594 44.1797ZM50.3594 44.4844L50.5312 44.6367L50.3594 44.4844ZM50.1875 44.6367L50.3594 44.7891L50.1875 44.6367ZM49.8438 44.7891L50.0156 44.9414L49.8438 44.7891ZM49.3281 45.0938L49.5 45.2461L49.3281 45.0938ZM48.9844 45.2461L49.1562 45.3984L48.9844 45.2461ZM48.8125 45.3984L48.9844 45.5508L48.8125 45.3984ZM48.4688 45.5508L48.6406 45.7031L48.4688 45.5508ZM44.3438 45.8555V46.0078H44.8594L44.3438 45.8555ZM47.9531 45.8555L48.125 46.0078L47.9531 45.8555ZM45.0312 46.0078L45.2031 46.1602L45.0312 46.0078ZM47.6094 46.0078L47.7812 46.1602L47.6094 46.0078ZM45.375 46.1602L45.5469 46.3125L45.375 46.1602ZM47.4375 46.1602L47.6094 46.3125L47.4375 46.1602ZM45.5469 46.3125L45.7188 46.4648L45.5469 46.3125ZM47.0938 46.3125L47.2656 46.4648L47.0938 46.3125ZM46.5781 46.6172L46.75 46.7695L46.5781 46.6172ZM46.1771 46.8203L46.2916 46.8711L46.1771 46.8203Z" fill="#EB1DDC"/>
<path d="M25.9531 54.9961V68.8594H20.4531C20.8065 70.4748 20.8065 71.8142 20.4531 73.4297H31.1094V54.9961H25.9531Z" fill="#E4F0F9"/>
<path d="M41.4219 54.9961V64.5938H46.5781V54.9961H41.4219Z" fill="#E4F0F9"/>
<path d="M56.8906 54.9961V73.4297H67.5469V68.8594H62.0469V54.9961H56.8906Z" fill="#E4F0F9"/>
<path d="M11.3438 64.3604C6.34814 65.19 3.85152 70.4491 6.0799 74.3438C7.70245 77.1796 11.317 78.5041 14.7813 77.9287C19.7609 77.1018 22.2452 71.8459 20.0447 67.9453C18.4364 65.0942 14.8025 63.7859 11.3438 64.3604ZM44.0001 78V64.2891C35.985 64.2938 33.1343 74.299 40.5626 77.4074C41.6952 77.8813 42.7648 77.9999 44.0001 78Z" fill="#EB1DDC"/>
<path d="M44 64.2891V78.0001C45.1535 77.9979 46.2146 77.9253 47.2656 77.4624C54.543 74.2587 52.2816 64.3094 44 64.2891ZM73.2188 64.3604C68.2689 65.1825 65.7771 70.4476 67.9554 74.3438C69.5463 77.1891 73.2148 78.5004 76.6562 77.9288C81.7144 77.0887 84.221 71.6885 81.8297 67.793C80.1443 65.0478 76.6315 63.7935 73.2188 64.3604Z" fill="#4C13F1"/>
<path d="M47.0938 64.7461L47.2656 64.8984L47.0938 64.7461ZM47.4375 64.8984L47.6094 65.0508L47.4375 64.8984ZM47.7812 65.0508L47.9531 65.2031L47.7812 65.0508ZM48.2969 65.3555L48.4688 65.5078L48.2969 65.3555ZM48.8125 65.6602L48.9844 65.8125L48.8125 65.6602ZM49.1562 65.9648L49.3281 66.1172L49.1562 65.9648ZM49.8438 66.5742L50.0156 66.7266L49.8438 66.5742ZM50.0156 66.7266L50.1875 66.8789L50.0156 66.7266ZM50.7031 67.6406L50.875 67.793L50.7031 67.6406ZM51.0469 68.25L51.2188 68.4023L51.0469 68.25ZM51.2188 68.707L51.3906 68.8594L51.2188 68.707ZM51.4479 69.1133L51.5053 69.2148L51.4479 69.1133ZM51.5625 69.7734L51.7344 69.9258L51.5625 69.7734ZM51.5625 72.3633L51.7344 72.5156L51.5625 72.3633ZM51.3906 73.125L51.5625 73.2773L51.3906 73.125ZM51.2188 73.4297L51.3906 73.582L51.2188 73.4297ZM51.0469 73.8867L51.2188 74.0391L51.0469 73.8867ZM50.875 74.1914L51.0469 74.3438L50.875 74.1914ZM50.7031 74.4961L50.875 74.6484L50.7031 74.4961ZM50.3594 74.9531L50.5312 75.1055L50.3594 74.9531ZM49.6719 75.7148L49.8438 75.8672L49.6719 75.7148ZM49.5 75.8672L49.6719 76.0195L49.5 75.8672ZM49.1562 76.1719L49.3281 76.3242L49.1562 76.1719ZM48.8125 76.4766L48.9844 76.6289L48.8125 76.4766ZM48.2969 76.7812L48.4688 76.9336L48.2969 76.7812ZM47.7812 77.0859L47.9531 77.2383L47.7812 77.0859ZM47.0938 77.3906L47.2656 77.543L47.0938 77.3906ZM45.375 77.8477L45.5469 78L45.375 77.8477Z" fill="#EB1DDC"/>
</g>
<path d="M116.36 27.08V55H110.76V27.08H116.36ZM134.853 55.28C132.239 55.28 129.839 54.6667 127.653 53.44C125.466 52.2133 123.733 50.52 122.453 48.36C121.173 46.1733 120.533 43.7067 120.533 40.96C120.533 38.24 121.173 35.8 122.453 33.64C123.733 31.4533 125.466 29.7467 127.653 28.52C129.839 27.2933 132.239 26.68 134.853 26.68C137.493 26.68 139.893 27.2933 142.053 28.52C144.239 29.7467 145.959 31.4533 147.213 33.64C148.493 35.8 149.133 38.24 149.133 40.96C149.133 43.7067 148.493 46.1733 147.213 48.36C145.959 50.52 144.239 52.2133 142.053 53.44C139.866 54.6667 137.466 55.28 134.853 55.28ZM134.853 50.28C136.533 50.28 138.013 49.9067 139.293 49.16C140.573 48.3867 141.573 47.2933 142.293 45.88C143.013 44.4667 143.373 42.8267 143.373 40.96C143.373 39.0933 143.013 37.4667 142.293 36.08C141.573 34.6667 140.573 33.5867 139.293 32.84C138.013 32.0933 136.533 31.72 134.853 31.72C133.173 31.72 131.679 32.0933 130.373 32.84C129.093 33.5867 128.093 34.6667 127.373 36.08C126.653 37.4667 126.293 39.0933 126.293 40.96C126.293 42.8267 126.653 44.4667 127.373 45.88C128.093 47.2933 129.093 48.3867 130.373 49.16C131.679 49.9067 133.173 50.28 134.853 50.28ZM172.299 27.08V31.6H164.859V55H159.259V31.6H151.819V27.08H172.299ZM195.676 27.08C198.61 27.08 201.183 27.6533 203.396 28.8C205.636 29.9467 207.356 31.5867 208.556 33.72C209.783 35.8267 210.396 38.28 210.396 41.08C210.396 43.88 209.783 46.3333 208.556 48.44C207.356 50.52 205.636 52.1333 203.396 53.28C201.183 54.4267 198.61 55 195.676 55H185.916V27.08H195.676ZM195.476 50.24C198.41 50.24 200.676 49.44 202.276 47.84C203.876 46.24 204.676 43.9867 204.676 41.08C204.676 38.1733 203.876 35.9067 202.276 34.28C200.676 32.6267 198.41 31.8 195.476 31.8H191.516V50.24H195.476ZM213.148 43.84C213.148 41.6 213.588 39.6133 214.468 37.88C215.375 36.1467 216.588 34.8133 218.108 33.88C219.655 32.9467 221.375 32.48 223.268 32.48C224.921 32.48 226.361 32.8133 227.588 33.48C228.841 34.1467 229.841 34.9867 230.588 36V32.84H236.228V55H230.588V51.76C229.868 52.8 228.868 53.6667 227.588 54.36C226.335 55.0267 224.881 55.36 223.228 55.36C221.361 55.36 219.655 54.88 218.108 53.92C216.588 52.96 215.375 51.6133 214.468 49.88C213.588 48.12 213.148 46.1067 213.148 43.84ZM230.588 43.92C230.588 42.56 230.321 41.4 229.788 40.44C229.255 39.4533 228.535 38.7067 227.628 38.2C226.721 37.6667 225.748 37.4 224.708 37.4C223.668 37.4 222.708 37.6533 221.828 38.16C220.948 38.6667 220.228 39.4133 219.668 40.4C219.135 41.36 218.868 42.5067 218.868 43.84C218.868 45.1733 219.135 46.3467 219.668 47.36C220.228 48.3467 220.948 49.1067 221.828 49.64C222.735 50.1733 223.695 50.44 224.708 50.44C225.748 50.44 226.721 50.1867 227.628 49.68C228.535 49.1467 229.255 48.4 229.788 47.44C230.321 46.4533 230.588 45.28 230.588 43.92ZM250.178 55.36C248.364 55.36 246.738 55.04 245.298 54.4C243.858 53.7333 242.711 52.84 241.858 51.72C241.031 50.6 240.578 49.36 240.498 48H246.138C246.244 48.8533 246.658 49.56 247.378 50.12C248.124 50.68 249.044 50.96 250.138 50.96C251.204 50.96 252.031 50.7467 252.618 50.32C253.231 49.8933 253.538 49.3467 253.538 48.68C253.538 47.96 253.164 47.4267 252.418 47.08C251.698 46.7067 250.538 46.3067 248.938 45.88C247.284 45.48 245.924 45.0667 244.858 44.64C243.818 44.2133 242.911 43.56 242.138 42.68C241.391 41.8 241.018 40.6133 241.018 39.12C241.018 37.8933 241.364 36.7733 242.058 35.76C242.778 34.7467 243.791 33.9467 245.098 33.36C246.431 32.7733 247.991 32.48 249.778 32.48C252.418 32.48 254.524 33.1467 256.098 34.48C257.671 35.7867 258.538 37.56 258.698 39.8H253.338C253.258 38.92 252.884 38.2267 252.218 37.72C251.578 37.1867 250.711 36.92 249.618 36.92C248.604 36.92 247.818 37.1067 247.258 37.48C246.724 37.8533 246.458 38.3733 246.458 39.04C246.458 39.7867 246.831 40.36 247.578 40.76C248.324 41.1333 249.484 41.52 251.058 41.92C252.658 42.32 253.978 42.7333 255.018 43.16C256.058 43.5867 256.951 44.2533 257.698 45.16C258.471 46.04 258.871 47.2133 258.898 48.68C258.898 49.96 258.538 51.1067 257.818 52.12C257.124 53.1333 256.111 53.9333 254.778 54.52C253.471 55.08 251.938 55.36 250.178 55.36ZM275.974 32.52C277.654 32.52 279.148 32.8933 280.454 33.64C281.761 34.36 282.774 35.44 283.494 36.88C284.241 38.2933 284.614 40 284.614 42V55H279.014V42.76C279.014 41 278.574 39.6533 277.694 38.72C276.814 37.76 275.614 37.28 274.094 37.28C272.548 37.28 271.321 37.76 270.414 38.72C269.534 39.6533 269.094 41 269.094 42.76V55H263.494V25.4H269.094V35.6C269.814 34.64 270.774 33.8933 271.974 33.36C273.174 32.8 274.508 32.52 275.974 32.52ZM295.54 36.08C296.26 35.0133 297.246 34.1467 298.5 33.48C299.78 32.8133 301.233 32.48 302.86 32.48C304.753 32.48 306.46 32.9467 307.98 33.88C309.526 34.8133 310.74 36.1467 311.62 37.88C312.526 39.5867 312.98 41.5733 312.98 43.84C312.98 46.1067 312.526 48.12 311.62 49.88C310.74 51.6133 309.526 52.96 307.98 53.92C306.46 54.88 304.753 55.36 302.86 55.36C301.206 55.36 299.753 55.04 298.5 54.4C297.273 53.7333 296.286 52.88 295.54 51.84V55H289.94V25.4H295.54V36.08ZM307.26 43.84C307.26 42.5067 306.98 41.36 306.42 40.4C305.886 39.4133 305.166 38.6667 304.26 38.16C303.38 37.6533 302.42 37.4 301.38 37.4C300.366 37.4 299.406 37.6667 298.5 38.2C297.62 38.7067 296.9 39.4533 296.34 40.44C295.806 41.4267 295.54 42.5867 295.54 43.92C295.54 45.2533 295.806 46.4133 296.34 47.4C296.9 48.3867 297.62 49.1467 298.5 49.68C299.406 50.1867 300.366 50.44 301.38 50.44C302.42 50.44 303.38 50.1733 304.26 49.64C305.166 49.1067 305.886 48.3467 306.42 47.36C306.98 46.3733 307.26 45.2 307.26 43.84ZM326.889 55.36C324.756 55.36 322.836 54.8933 321.129 53.96C319.422 53 318.076 51.6533 317.089 49.92C316.129 48.1867 315.649 46.1867 315.649 43.92C315.649 41.6533 316.142 39.6533 317.129 37.92C318.142 36.1867 319.516 34.8533 321.249 33.92C322.982 32.96 324.916 32.48 327.049 32.48C329.182 32.48 331.116 32.96 332.849 33.92C334.582 34.8533 335.942 36.1867 336.929 37.92C337.942 39.6533 338.449 41.6533 338.449 43.92C338.449 46.1867 337.929 48.1867 336.889 49.92C335.876 51.6533 334.489 53 332.729 53.96C330.996 54.8933 329.049 55.36 326.889 55.36ZM326.889 50.48C327.902 50.48 328.849 50.24 329.729 49.76C330.636 49.2533 331.356 48.5067 331.889 47.52C332.422 46.5333 332.689 45.3333 332.689 43.92C332.689 41.8133 332.129 40.2 331.009 39.08C329.916 37.9333 328.569 37.36 326.969 37.36C325.369 37.36 324.022 37.9333 322.929 39.08C321.862 40.2 321.329 41.8133 321.329 43.92C321.329 46.0267 321.849 47.6533 322.889 48.8C323.956 49.92 325.289 50.48 326.889 50.48ZM341.117 43.84C341.117 41.6 341.557 39.6133 342.437 37.88C343.344 36.1467 344.557 34.8133 346.077 33.88C347.624 32.9467 349.344 32.48 351.237 32.48C352.89 32.48 354.33 32.8133 355.557 33.48C356.81 34.1467 357.81 34.9867 358.557 36V32.84H364.197V55H358.557V51.76C357.837 52.8 356.837 53.6667 355.557 54.36C354.304 55.0267 352.85 55.36 351.197 55.36C349.33 55.36 347.624 54.88 346.077 53.92C344.557 52.96 343.344 51.6133 342.437 49.88C341.557 48.12 341.117 46.1067 341.117 43.84ZM358.557 43.92C358.557 42.56 358.29 41.4 357.757 40.44C357.224 39.4533 356.504 38.7067 355.597 38.2C354.69 37.6667 353.717 37.4 352.677 37.4C351.637 37.4 350.677 37.6533 349.797 38.16C348.917 38.6667 348.197 39.4133 347.637 40.4C347.104 41.36 346.837 42.5067 346.837 43.84C346.837 45.1733 347.104 46.3467 347.637 47.36C348.197 48.3467 348.917 49.1067 349.797 49.64C350.704 50.1733 351.664 50.44 352.677 50.44C353.717 50.44 354.69 50.1867 355.597 49.68C356.504 49.1467 357.224 48.4 357.757 47.44C358.29 46.4533 358.557 45.28 358.557 43.92ZM375.266 36.28C375.986 35.1067 376.92 34.1867 378.066 33.52C379.24 32.8533 380.573 32.52 382.066 32.52V38.4H380.586C378.826 38.4 377.493 38.8133 376.586 39.64C375.706 40.4667 375.266 41.9067 375.266 43.96V55H369.666V32.84H375.266V36.28ZM384.398 43.84C384.398 41.6 384.838 39.6133 385.718 37.88C386.625 36.1467 387.851 34.8133 389.398 33.88C390.945 32.9467 392.665 32.48 394.558 32.48C395.998 32.48 397.371 32.8 398.678 33.44C399.985 34.0533 401.025 34.88 401.798 35.92V25.4H407.478V55H401.798V51.72C401.105 52.8133 400.131 53.6933 398.878 54.36C397.625 55.0267 396.171 55.36 394.518 55.36C392.651 55.36 390.945 54.88 389.398 53.92C387.851 52.96 386.625 51.6133 385.718 49.88C384.838 48.12 384.398 46.1067 384.398 43.84ZM401.838 43.92C401.838 42.56 401.571 41.4 401.038 40.44C400.505 39.4533 399.785 38.7067 398.878 38.2C397.971 37.6667 396.998 37.4 395.958 37.4C394.918 37.4 393.958 37.6533 393.078 38.16C392.198 38.6667 391.478 39.4133 390.918 40.4C390.385 41.36 390.118 42.5067 390.118 43.84C390.118 45.1733 390.385 46.3467 390.918 47.36C391.478 48.3467 392.198 49.1067 393.078 49.64C393.985 50.1733 394.945 50.44 395.958 50.44C396.998 50.44 397.971 50.1867 398.878 49.68C399.785 49.1467 400.505 48.4 401.038 47.44C401.571 46.4533 401.838 45.28 401.838 43.92Z" fill="url(#paint0_linear_1036_466)"/>
<defs>
<linearGradient id="paint0_linear_1036_466" x1="423.081" y1="71" x2="83.1854" y2="71" gradientUnits="userSpaceOnUse">
<stop stop-color="#F11EDC"/>
<stop offset="0.402778" stop-color="#CF1CDE"/>
<stop offset="0.692407" stop-color="#1531D1"/>
</linearGradient>
<clipPath id="clip0_1036_466">
<rect width="88" height="78" fill="white"/>
</clipPath>
</defs>
</svg>
